<svg xmlns="http://www.w3.org/2000/svg" xmlns:osb="http://www.openswatchbook.org/uri/2009/osb" xmlns:svg="http://www.w3.org/2000/svg" xmlns:xlink="http://www.w3.org/1999/xlink" id="svg11300" width="48" height="48" version="1.1"><defs id="defs3"><linearGradient id="linearGradient3507"><stop style="stop-color:#000;stop-opacity:1" id="stop3509" offset="0"/><stop style="stop-color:#000;stop-opacity:0" id="stop3511" offset="1"/></linearGradient><linearGradient id="linearGradient3497"><stop style="stop-color:#fff;stop-opacity:1" id="stop3499" offset="0"/><stop style="stop-color:#fff;stop-opacity:.56730771" id="stop3501" offset="1"/></linearGradient><linearGradient id="linearGradient4598" osb:paint="gradient"><stop style="stop-color:#e6eef7;stop-opacity:1" id="stop4600" offset="0"/><stop style="stop-color:#8ab0d8;stop-opacity:1" id="stop4602" offset="1"/></linearGradient><linearGradient id="linearGradient4590"><stop style="stop-color:#c00;stop-opacity:1" id="stop4592" offset="0"/><stop style="stop-color:#ffa2a2;stop-opacity:1" id="stop4594" offset="1"/></linearGradient><linearGradient id="linearGradient4582"><stop style="stop-color:#000;stop-opacity:1" id="stop4584" offset="0"/><stop style="stop-color:#000;stop-opacity:0" id="stop4586" offset="1"/></linearGradient><linearGradient id="linearGradient4570"><stop style="stop-color:#eceeea;stop-opacity:1" id="stop4572" offset="0"/><stop style="stop-color:#d3d7cf;stop-opacity:1" id="stop4574" offset="1"/></linearGradient><linearGradient id="linearGradient11520"><stop id="stop11522" offset="0" style="stop-color:#fff;stop-opacity:1"/><stop id="stop11524" offset="1" style="stop-color:#dcdcdc;stop-opacity:1"/></linearGradient><linearGradient id="linearGradient11508"><stop id="stop11510" offset="0" style="stop-color:#000;stop-opacity:1"/><stop id="stop11512" offset="1" style="stop-color:#000;stop-opacity:0"/></linearGradient><linearGradient id="linearGradient11494"><stop id="stop11496" offset="0" style="stop-color:#ef2929;stop-opacity:1"/><stop id="stop11498" offset="1" style="stop-color:#ef2929;stop-opacity:0"/></linearGradient><linearGradient id="linearGradient11415"><stop id="stop11417" offset="0" style="stop-color:#204a87;stop-opacity:0"/><stop style="stop-color:#204a87;stop-opacity:1" id="stop11423" offset=".5"/><stop id="stop11419" offset="1" style="stop-color:#204a87;stop-opacity:0"/></linearGradient><linearGradient id="linearGradient11399"><stop id="stop11401" offset="0" style="stop-color:#000;stop-opacity:1"/><stop id="stop11403" offset="1" style="stop-color:#000;stop-opacity:0"/></linearGradient><linearGradient id="linearGradient11425" x1="15.828" x2="43.616" y1="3.774" y2="34.462" gradientTransform="translate(-60.28571,-0.285714)" gradientUnits="userSpaceOnUse" xlink:href="#linearGradient11415"/><linearGradient id="linearGradient11427" x1="9.696" x2="35.68" y1="9.346" y2="39.034" gradientTransform="translate(-60.57143,0.000000)" gradientUnits="userSpaceOnUse" xlink:href="#linearGradient11415"/><linearGradient id="linearGradient11439" x1="13.267" x2="26.759" y1="19.774" y2="33.462" gradientTransform="translate(-60.85714,0.428571)" gradientUnits="userSpaceOnUse" xlink:href="#linearGradient11415"/><radialGradient id="radialGradient11441" cx="12.071" cy="39.143" r="8.5" fx="12.071" fy="39.143" gradientTransform="matrix(1.000000,0.000000,0.000000,0.487395,0.000000,20.06483)" gradientUnits="userSpaceOnUse" xlink:href="#linearGradient11399"/><radialGradient id="radialGradient11500" cx="27.577" cy="15.048" r="3.834" fx="27.577" fy="15.048" gradientTransform="matrix(1.243453,2.106784e-16,-2.106784e-16,1.243453,-6.713754,-3.742847)" gradientUnits="userSpaceOnUse" xlink:href="#linearGradient11494"/><radialGradient id="radialGradient11504" cx="27.577" cy="16.049" r="3.834" fx="27.577" fy="16.049" gradientTransform="matrix(1.243453,2.106784e-16,-2.106784e-16,1.243453,-6.713754,-3.742847)" gradientUnits="userSpaceOnUse" xlink:href="#linearGradient11494"/><radialGradient id="radialGradient11514" cx="30.204" cy="44.565" r="6.566" fx="30.204" fy="44.565" gradientTransform="matrix(1.000000,0.000000,0.000000,0.338462,2.166583e-14,29.48178)" gradientUnits="userSpaceOnUse" xlink:href="#linearGradient11508"/><radialGradient id="radialGradient11526" cx="24.446" cy="35.878" r="20.531" fx="24.446" fy="35.878" gradientTransform="matrix(1.995058,-1.651527e-32,0.000000,1.995058,-24.32488,-35.70087)" gradientUnits="userSpaceOnUse" xlink:href="#linearGradient11520"/><radialGradient id="radialGradient11532" cx="30.204" cy="44.565" r="6.566" fx="30.204" fy="44.565" gradientTransform="matrix(1.000000,0.000000,0.000000,0.338462,3.185827e-15,29.48178)" gradientUnits="userSpaceOnUse" xlink:href="#linearGradient11508"/><radialGradient id="radialGradient1348" cx="30.204" cy="44.565" r="6.566" fx="30.204" fy="44.565" gradientTransform="matrix(1.000000,0.000000,0.000000,0.338462,-1.353344e-14,29.48178)" gradientUnits="userSpaceOnUse" xlink:href="#linearGradient11508"/><radialGradient id="radialGradient1350" cx="24.446" cy="35.878" r="20.531" fx="24.446" fy="35.878" gradientTransform="matrix(1.995058,-1.651527e-32,0.000000,1.995058,-24.32488,-35.70087)" gradientUnits="userSpaceOnUse" xlink:href="#linearGradient11520"/><radialGradient id="radialGradient1352" cx="27.577" cy="16.049" r="3.834" fx="27.577" fy="16.049" gradientTransform="matrix(1.243453,2.106784e-16,-2.106784e-16,1.243453,-6.713754,-3.742847)" gradientUnits="userSpaceOnUse" xlink:href="#linearGradient11494"/><radialGradient id="radialGradient1354" cx="27.577" cy="15.048" r="3.834" fx="27.577" fy="15.048" gradientTransform="matrix(1.243453,2.106784e-16,-2.106784e-16,1.243453,-6.713754,-3.742847)" gradientUnits="userSpaceOnUse" xlink:href="#linearGradient11494"/><radialGradient id="radialGradient1356" cx="30.204" cy="44.565" r="6.566" fx="30.204" fy="44.565" gradientTransform="matrix(1.000000,0.000000,0.000000,0.338462,2.220359e-14,29.48178)" gradientUnits="userSpaceOnUse" xlink:href="#linearGradient11508"/><radialGradient id="radialGradient1366" cx="24.446" cy="35.878" r="20.531" fx="24.446" fy="35.878" gradientTransform="matrix(2.049266,-1.696401e-32,0.000000,2.049266,-25.65002,-37.31089)" gradientUnits="userSpaceOnUse" xlink:href="#linearGradient11520"/><radialGradient id="radialGradient4588" cx="24.625" cy="38.625" r="21.125" fx="24.625" fy="38.625" gradientTransform="matrix(1,0,0,0.420118,0,22.39793)" gradientUnits="userSpaceOnUse" xlink:href="#linearGradient4582"/><radialGradient id="radialGradient3513" cx="25.986" cy="26.787" r="15.465" fx="25.986" fy="26.787" gradientTransform="matrix(0.863137,0,0,0.438896,3.556549,15.03019)" gradientUnits="userSpaceOnUse" xlink:href="#linearGradient3507"/><linearGradient id="linearGradient3811" x1="3.995" x2="45.01" y1="24" y2="24" gradientTransform="translate(-48.875,-0.0625)" gradientUnits="userSpaceOnUse" xlink:href="#linearGradient4598"/></defs><metadata id="metadata4"/><g id="layer1"><path style="fill:#f9f9f9" id="path4004" d="m 23.375,5.125 c -1.489846,3.3187962 -3.668353,6.252687 -5.436237,9.419584 -2.028309,3.391303 -5.403881,5.608638 -8.190735,8.312747 -1.2579412,1.121284 -2.6306351,2.124275 -3.779278,3.361419 1.4719959,0.6873 3.3220735,-0.16992 4.737495,-0.788334 0.76573,-0.294682 1.622404,-1.514715 0.351952,-0.375602 -1.7773942,1.816151 -3.5261474,3.754004 -4.6887365,6.030194 -0.2880248,1.83598 2.2202039,-0.168154 2.9167985,-0.661793 3.358285,-2.552223 6.173267,-5.925918 10.09388,-7.665427 1.813712,-1.137102 2.87452,0.4801 3.580381,1.936709 1.25166,1.984494 2.603634,4.022031 4.707794,5.18553 1.568549,0.743272 3.437199,0.543366 5.106163,0.306251 3.82807,-1.007389 7.58449,-3.046055 9.907091,-6.329694 1.465203,-2.577509 0.734133,-5.625833 0.579047,-8.427827 -0.05562,-0.663752 -0.111243,-1.327505 -0.166865,-1.991257 -1.14887,2.019091 -2.116948,4.192445 -3.880078,5.77643 -2.596544,2.374106 -5.255393,5.189578 -8.925803,5.699269 -1.618318,0.707079 -3.930783,-0.557176 -3.583448,-2.427615 0.794106,-1.580892 2.686304,-2.083074 4.089345,-2.987393 3.812227,-2.251026 8.005597,-4.211927 10.775291,-7.800443 1.094202,-1.165047 1.892096,-2.5972169 1.339007,-4.2159135 C 42.362495,6.2498575 40.96748,4.5777444 39.926359,6.3321299 36.690047,9.3375376 33.001662,11.800833 29.530062,14.519707 28.341716,15.103781 26.27873,17.417099 25.19625,16.074692 24.423368,12.546765 24.782284,8.8175173 23.634664,5.3617823 23.579925,5.2842176 23.518923,5.077554 23.375,5.125 z m -18.25,1.5 c -0.2376887,0.4208594 -0.056889,0.5792559 0,0 z m 16.75,7.141085 c 0.08313,1.276034 0.132826,2.584841 -0.51141,3.751758 -0.282349,0.803933 -3.10261,3.176408 -2.317511,0.956628 C 19.74301,16.75861 20.805885,15.261187 21.875,13.766085 z M 5.4375,34.9375 c 0.049944,0.320012 0.119638,0.0016 0,0 z"/><path style="fill:#000;fill-opacity:1" id="path3185" d="m 23.446926,5.324702 c -0.05803,0.02792 -1.083302,2.79292 -2.591529,5.52811 -3.619099,6.563279 -5.916437,9.436086 -9.627221,11.90939 -1.605515,1.070104 -4.13239,2.418999 -4.6875,3.15625 -0.527833,0.701026 -0.205185,0.271324 1.937501,-0.34375 5.349182,-1.535523 4.951187,-2.755607 0.90625,2.09375 -5.509977,6.605748 -2.739342,4.553963 3.031249,-0.84375 2.645975,-2.475 5.531323,-4.211296 6.28125,-4.5 0.803579,-0.309359 1.309934,-0.525071 2.3125,-0.59375 1.18719,-0.08133 1.871595,0.03893 2.3125,1.34375 0.375,1.109782 1.223912,3.133862 2.5625,4.71875 0.541817,0.641511 1.022559,0.950541 1.515169,1.256855 0.454572,0.282662 0.914611,0.581572 1.549044,0.709406 1.266001,0.280035 2.111337,0.137369 2.998287,0.09624 1.900797,-0.113141 5.130246,-1.84618 7.34375,-3.625 3.5415,-2.846027 4.01491,-3.71989 3.96875,-7.3125 l -0.03125,-4.09375 -1.6875,2.499999 c -3.628513,5.406845 -7.976047,9 -10.90625,9 -6.477527,0 -7.33935,-5.001815 -1.1875,-7.53125 5.30913,-2.182936 11.940914,-6.564891 13.625,-9.3125 0.0039,-0.205612 -0.0054,-0.42849 -0.0078,-0.617188 C 43.022446,8.222339 42.872658,7.735435 42.662007,7.244692 42.415583,6.743372 41.974224,6.404276 41.610988,6.070795 41.280106,5.838586 41.08199,5.706107 40.833645,5.730951 c -0.31503,0.106598 -0.443532,0.270701 -0.542969,0.5625 -0.788439,2.313685 -12.483563,11.500001 -15.5625,11.500001 -0.296911,0 -0.416384,-2.358664 -0.671415,-5.924555 C 23.791596,8.161313 23.88497,5.113914 23.446926,5.324702 z m -1.3125,7.578586 0.25,2.858914 c -0.04734,1.881061 -1.088625,2.947661 -2.239277,3.429917 -1.142287,0.478752 -2.266288,1.297745 -2.162487,0.01837 0.05493,-0.676996 1.076523,-1.756714 2.302652,-3.4849 z m -16.6875,21.921414 c 0.0143,0.03861 0.04626,0.08707 0.0625,0.125 -0.0014,-0.01987 0.0014,-0.04258 0,-0.0625 -0.0028,0.0103 -0.03339,2.21e-4 -0.0625,-0.0625 z"/><path style="fill:#fff;fill-opacity:1;fill-rule:nonzero;stroke:#000;stroke-width:.125;stroke-miterlimit:10;stroke-opacity:1;stroke-dasharray:none" id="path3841"/><path style="fill:#fff;fill-opacity:1;fill-rule:nonzero;stroke:#000;stroke-width:.04419417;stroke-miterlimit:10;stroke-opacity:1;stroke-dasharray:none" id="path3875"/><path style="fill:#fff;fill-opacity:1;fill-rule:nonzero;stroke:#000;stroke-width:.04419417;stroke-miterlimit:10;stroke-opacity:1;stroke-dasharray:none" id="path3905"/><path style="fill:#fff;fill-opacity:1;fill-rule:nonzero;stroke:#000;stroke-width:.04419417;stroke-miterlimit:10;stroke-opacity:1;stroke-dasharray:none" id="path3935"/><path style="fill:#fff;fill-opacity:1;fill-rule:nonzero;stroke:#000;stroke-width:.04419417;stroke-miterlimit:10;stroke-opacity:1;stroke-dasharray:none" id="path3939"/><path style="fill:#fff;fill-opacity:1;fill-rule:nonzero;stroke:#000;stroke-width:.04419417;stroke-miterlimit:10;stroke-opacity:1;stroke-dasharray:none" id="path3981"/><path style="fill:#fff;fill-opacity:1;fill-rule:nonzero;stroke:#000;stroke-width:.04419417;stroke-miterlimit:10;stroke-opacity:1;stroke-dasharray:none" id="path3985"/><path style="fill:#fff;fill-opacity:1;fill-rule:nonzero;stroke:#000;stroke-width:.04419417;stroke-miterlimit:10;stroke-opacity:1;stroke-dasharray:none" id="path3999"/><path style="fill:#fff;fill-opacity:1;fill-rule:nonzero;stroke:#000;stroke-width:.04419417;stroke-miterlimit:10;stroke-opacity:1;stroke-dasharray:none" id="path4007"/><path style="fill:#fff;fill-opacity:1;fill-rule:nonzero;stroke:#000;stroke-width:.04419417;stroke-miterlimit:10;stroke-opacity:1;stroke-dasharray:none" id="path4009"/><path style="fill:#fff;fill-opacity:1;fill-rule:nonzero;stroke:#000;stroke-width:.04419417;stroke-miterlimit:10;stroke-opacity:1;stroke-dasharray:none" id="path4033"/><path style="fill:#fff;fill-opacity:1;fill-rule:nonzero;stroke:#000;stroke-width:.04419417;stroke-miterlimit:10;stroke-opacity:1;stroke-dasharray:none" id="path4165"/><path style="fill:#fff;fill-opacity:1;fill-rule:nonzero;stroke:#000;stroke-width:.04419417;stroke-miterlimit:10;stroke-opacity:1;stroke-dasharray:none" id="path4189"/><path style="fill:#fff;fill-opacity:1;fill-rule:nonzero;stroke:#000;stroke-width:.04419417;stroke-miterlimit:10;stroke-opacity:1;stroke-dasharray:none" id="path4191"/><path style="fill:#fff;fill-opacity:1;fill-rule:nonzero;stroke:#000;stroke-width:.04419417;stroke-miterlimit:10;stroke-opacity:1;stroke-dasharray:none" id="path4199"/><path style="fill:#fff;fill-opacity:1;fill-rule:nonzero;stroke:#000;stroke-width:.04419417;stroke-miterlimit:10;stroke-opacity:1;stroke-dasharray:none" id="path4201"/><path style="fill:#fff;fill-opacity:1;fill-rule:nonzero;stroke:#000;stroke-width:.04419417;stroke-miterlimit:10;stroke-opacity:1;stroke-dasharray:none" id="path4207"/><path style="fill:#fff;fill-opacity:1;fill-rule:nonzero;stroke:#000;stroke-width:.04419417;stroke-miterlimit:10;stroke-opacity:1;stroke-dasharray:none" id="path4213"/><path style="fill:#fff;fill-opacity:1;fill-rule:nonzero;stroke:#000;stroke-width:.04419417;stroke-miterlimit:10;stroke-opacity:1;stroke-dasharray:none" id="path4221"/><path style="fill:#fff;fill-opacity:1;fill-rule:nonzero;stroke:#000;stroke-width:.04419417;stroke-miterlimit:10;stroke-opacity:1;stroke-dasharray:none" id="path4225"/><path style="fill:#fff;fill-opacity:1;fill-rule:nonzero;stroke:#000;stroke-width:.04419417;stroke-miterlimit:10;stroke-opacity:1;stroke-dasharray:none" id="path4239"/><path style="fill:#fff;fill-opacity:1;fill-rule:nonzero;stroke:#000;stroke-width:.04419417;stroke-miterlimit:10;stroke-opacity:1;stroke-dasharray:none" id="path4243"/><path style="fill:#fff;fill-opacity:1;fill-rule:nonzero;stroke:#000;stroke-width:.04419417;stroke-miterlimit:10;stroke-opacity:1;stroke-dasharray:none" id="path4245"/><path style="fill:#fff;fill-opacity:1;fill-rule:nonzero;stroke:#000;stroke-width:.04419417;stroke-miterlimit:10;stroke-opacity:1;stroke-dasharray:none" id="path4249"/><path style="fill:#fff;fill-opacity:1;fill-rule:nonzero;stroke:#000;stroke-width:.04419417;stroke-miterlimit:10;stroke-opacity:1;stroke-dasharray:none" id="path4257"/><path style="fill:#fff;fill-opacity:1;fill-rule:nonzero;stroke:#000;stroke-width:.04419417;stroke-miterlimit:10;stroke-opacity:1;stroke-dasharray:none" id="path4271"/><path style="fill:#fff;fill-opacity:1;fill-rule:nonzero;stroke:#000;stroke-width:.04419417;stroke-miterlimit:10;stroke-opacity:1;stroke-dasharray:none" id="path4349"/><path style="fill:#fff;fill-opacity:1;fill-rule:nonzero;stroke:#000;stroke-width:.04419417;stroke-miterlimit:10;stroke-opacity:1;stroke-dasharray:none" id="path4361"/><path style="fill:#fff;fill-opacity:1;fill-rule:nonzero;stroke:#fff;stroke-width:.0078125;stroke-miterlimit:10;stroke-opacity:1;stroke-dasharray:none" id="path4373"/><path style="fill:#fff;fill-opacity:1;fill-rule:nonzero;stroke:#fff;stroke-width:.0078125;stroke-miterlimit:10;stroke-opacity:1;stroke-dasharray:none" id="path4375" d="m 22.961118,25.020805 c 0.0072,-0.0029 0.0098,-0.0336 0.0098,-0.115697 0,-0.09602 -0.0028,-0.121243 -0.01953,-0.179154 -0.02449,-0.08452 -0.02428,-0.08795 0.0024,-0.03982 0.01731,0.03118 0.145436,0.234903 0.202532,0.322042 l 0.01166,0.0178 -0.10832,-6.17e-4 c -0.05958,-3.39e-4 -0.103926,-0.0024 -0.09856,-0.0046 z"/><path style="fill:#fff;fill-opacity:1;fill-rule:nonzero;stroke:#fff;stroke-width:.0078125;stroke-miterlimit:10;stroke-opacity:1;stroke-dasharray:none" id="path4379" d="m 23.369321,25.396582 c -0.01504,-0.0057 -0.05371,-0.0108 -0.08594,-0.01136 l -0.05859,-10e-4 0.05469,-0.01358 c 0.03008,-0.0075 0.06224,-0.01769 0.07147,-0.02271 0.01764,-0.0096 0.0234,-0.0045 0.04869,0.0433 0.01041,0.01967 0.0084,0.02002 -0.03031,0.0054 z"/><path style="fill:#fff;fill-opacity:1;fill-rule:nonzero;stroke:#fff;stroke-width:.0078125;stroke-miterlimit:10;stroke-opacity:1;stroke-dasharray:none" id="path4383" d="m 24.115415,26.505372 c -0.0204,-0.0076 -0.08242,-0.01408 -0.178607,-0.01855 -0.08105,-0.0038 -0.148885,-0.0084 -0.150754,-0.01026 -0.0019,-0.0019 0.0064,-0.0058 0.01845,-0.0087 0.01202,-0.0029 0.03463,-0.01918 0.05024,-0.0361 0.02626,-0.02845 0.03154,-0.03076 0.07031,-0.03077 0.055,-1.6e-5 0.09528,-0.01984 0.100512,-0.04945 0.0037,-0.02089 0.0067,-0.01808 0.05469,0.0504 0.09161,0.130844 0.08918,0.12367 0.03516,0.103456 z"/><path style="fill:#fff;fill-opacity:1;fill-rule:nonzero;stroke:#fff;stroke-width:.0078125;stroke-miterlimit:10;stroke-opacity:1;stroke-dasharray:none" id="path4387" d="m 20.250181,26.683128 c 0.01396,-0.01405 0.02539,-0.03187 0.02539,-0.03961 0,-0.02791 0.01868,-0.03266 0.126363,-0.03213 0.05719,2.86e-4 0.116085,0.0028 0.130884,0.0056 0.02304,0.0043 0.01362,0.0078 -0.06545,0.024 -0.08568,0.01758 -0.190114,0.04572 -0.226954,0.06116 -0.01078,0.0045 -0.0078,-0.0014 0.0098,-0.01899 z"/><path style="fill:#fff;fill-opacity:1;fill-rule:nonzero;stroke:#fff;stroke-width:.0078125;stroke-miterlimit:10;stroke-opacity:1;stroke-dasharray:none" id="path4395" d="m 18.505959,27.495095 c 0.0032,-0.01477 3.88e-4,-0.03293 -0.0079,-0.05048 -0.0072,-0.01508 -0.01152,-0.03187 -0.0097,-0.03732 0.0025,-0.0076 0.16297,-0.0535 0.279447,-0.07995 0.0064,-0.0015 0.109277,-0.0196 0.228515,-0.04031 l 0.216797,-0.03765 0,-0.02124 c 0,-0.0169 0.0044,-0.02213 0.02149,-0.02561 0.0259,-0.0053 0.120679,-0.02016 0.128906,-0.02024 0.0032,-3.3e-5 0.0059,-0.0052 0.0059,-0.01142 0,-0.0067 0.01034,-0.0131 0.02539,-0.01563 0.04474,-0.0075 0.12676,-0.01976 0.132812,-0.01982 0.0032,-3.3e-5 0.0059,-0.0053 0.0059,-0.01178 0,-0.0064 0.0016,-0.01172 0.0035,-0.01172 0.0019,0 0.05097,-0.007 0.109005,-0.01551 0.08978,-0.01319 0.115099,-0.01422 0.169654,-0.0069 0.03527,0.0047 0.103112,0.007 0.150761,0.005 0.0754,-0.0032 0.09929,-0.0079 0.18429,-0.03647 0.147439,-0.04952 0.241334,-0.07011 0.377025,-0.08267 0.06772,-0.0063 0.130313,-0.01525 0.139105,-0.01995 0.0088,-0.0047 0.01982,-0.0073 0.0245,-0.0057 0.0047,0.0016 -0.01221,0.01209 -0.03754,0.0234 -0.04851,0.02166 -0.116539,0.03287 -0.253086,0.0417 -0.08902,0.0058 -0.160397,0.02109 -0.179744,0.0386 -0.02523,0.02283 -0.08797,0.04372 -0.209196,0.06966 -0.06872,0.0147 -0.139346,0.03408 -0.156949,0.04306 -0.03785,0.01931 -0.05887,0.04802 -0.05395,0.07371 0.0034,0.01795 0.0017,0.01862 -0.05964,0.02286 -0.03668,0.0025 -0.103427,0.01592 -0.15916,0.03192 -0.05279,0.01516 -0.116732,0.0299 -0.142087,0.03277 -0.0399,0.0045 -0.04894,0.003 -0.06718,-0.01136 -0.04566,-0.03592 -0.160202,-0.01116 -0.191274,0.04134 -0.02751,0.04649 -0.02472,0.04562 -0.139394,0.04331 -0.143521,-0.0029 -0.161811,-0.0016 -0.175697,0.01228 -0.0066,0.0066 -0.02704,0.0173 -0.04548,0.02384 -0.03171,0.01124 -0.302702,0.0814 -0.31443,0.0814 -0.003,0 -0.0032,-0.01038 -4.31e-4,-0.02307 z"/><path style="fill:#fff;fill-opacity:1;fill-rule:nonzero;stroke:#fff;stroke-width:.0078125;stroke-miterlimit:10;stroke-opacity:1;stroke-dasharray:none" id="path4399" d="m 16.218754,27.552808 c 0.01387,-0.01093 0.03197,-0.03514 0.04022,-0.05381 0.01157,-0.02615 0.02038,-0.03511 0.03843,-0.03908 0.01288,-0.0028 0.02989,-0.01229 0.03779,-0.02103 0.01409,-0.01557 0.01381,-0.0164 -0.01409,-0.04197 l -0.02846,-0.02608 0.03043,-0.01217 c 0.03967,-0.01587 0.18581,-0.05926 0.19961,-0.05926 0.0069,0 0.0107,0.0092 0.0107,0.02578 0,0.03328 0.01197,0.04453 0.04738,0.04453 0.03399,0 0.06278,-0.02043 0.09037,-0.06414 0.02279,-0.03611 0.06437,-0.05729 0.12787,-0.06514 0.05332,-0.0066 0.10748,-0.03623 0.11405,-0.06241 0.0031,-0.01223 0.01039,-0.01925 0.02007,-0.01925 0.01237,0 0.115046,-0.02128 0.207673,-0.04304 0.01526,-0.0036 0.01758,-0.001 0.01758,0.01946 0,0.01344 0.0042,0.02377 0.0098,0.02401 0.0054,2.3e-4 -0.01825,0.0087 -0.05248,0.01883 -0.100796,0.02981 -0.118285,0.07066 -0.04404,0.102863 0.0171,0.0074 0.01275,0.0082 -0.02734,0.0049 -0.06174,-0.0051 -0.09861,0.0074 -0.143282,0.04881 -0.05538,0.05129 -0.06466,0.05442 -0.126495,0.04275 -0.05669,-0.0107 -0.07649,-0.0049 -0.07756,0.02264 -3.35e-4,0.0086 -0.0028,0.007 -0.0076,-0.0049 -0.01171,-0.02914 -0.04583,-0.0232 -0.08216,0.01431 -0.05761,0.0595 -0.131963,0.09348 -0.297144,0.13582 -0.05923,0.01518 -0.109679,0.02756 -0.112117,0.02751 -0.0024,-4.7e-5 0.0069,-0.009 0.02078,-0.01996 z"/><path style="fill:#fff;fill-opacity:1;fill-rule:nonzero;stroke:#fff;stroke-width:.0078125;stroke-miterlimit:10;stroke-opacity:1;stroke-dasharray:none" id="path4401" d="m 18.356908,28.361317 c 0.0268,-0.03185 0.02663,-0.05846 -4.31e-4,-0.06748 -0.01904,-0.0063 -0.01675,-0.008 0.0293,-0.02112 0.02747,-0.0078 0.06146,-0.01763 0.07553,-0.02178 0.01794,-0.0053 0.03005,-0.01632 0.04059,-0.03698 0.01765,-0.03459 0.04355,-0.04729 0.183838,-0.09014 0.161453,-0.04931 0.272801,-0.08815 0.348656,-0.121641 0.226706,-0.100083 0.273089,-0.115324 0.655251,-0.215297 0.139648,-0.03653 0.317187,-0.08368 0.394531,-0.104764 0.250821,-0.06839 0.410876,-0.108592 0.575882,-0.144656 0.245603,-0.05368 0.423302,-0.08862 0.429906,-0.08454 0.0033,0.002 0.0059,0.01025 0.0059,0.0183 0,0.0082 0.0075,0.01702 0.01692,0.02001 l 0.01692,0.0054 -0.01595,0.01273 c -0.0088,0.007 -0.01811,0.022 -0.02076,0.03332 -0.0047,0.0202 -0.0054,0.02039 -0.03418,0.01011 -0.06998,-0.02497 -0.130879,-0.0058 -0.189905,0.05984 l -0.04335,0.04819 -0.07775,0.0065 c -0.04276,0.0036 -0.133999,0.01014 -0.202749,0.01454 -0.218214,0.01396 -0.348666,0.04075 -0.38296,0.07865 -0.01138,0.01258 -0.02411,0.01546 -0.06819,0.01546 -0.132202,0 -0.539284,0.115146 -0.843885,0.238698 -0.06976,0.0283 -0.223514,0.08841 -0.341678,0.133593 -0.242823,0.09284 -0.356596,0.139635 -0.479604,0.197242 -0.04679,0.02191 -0.08665,0.03984 -0.08858,0.03984 -0.0019,0 0.0056,-0.01082 0.01671,-0.02404 l 0,0 z"/><path style="fill:#fff;fill-opacity:1;fill-rule:nonzero;stroke:#fff;stroke-width:.0078125;stroke-miterlimit:10;stroke-opacity:1;stroke-dasharray:none" id="path4405" d="m 19.603696,27.441453 c 0,-0.02353 0.02323,-0.03814 0.08984,-0.05652 0.135306,-0.03733 0.145912,-0.0413 0.157451,-0.05891 0.01119,-0.01707 0.01279,-0.0173 0.04416,-0.0062 0.06455,0.02278 0.156557,0.04294 0.201624,0.04419 0.04238,0.0012 0.04559,0.0025 0.0411,0.01718 -0.0027,0.0088 -0.0062,0.01742 -0.0079,0.01926 -0.0017,0.0018 -0.03902,-8.14e-4 -0.08301,-0.0059 -0.04399,-0.0051 -0.10481,-0.0092 -0.135152,-0.0092 -0.04638,3.7e-5 -0.05817,0.0028 -0.07401,0.01762 -0.01625,0.01516 -0.03018,0.0182 -0.101082,0.02206 -0.05482,0.003 -0.0907,0.0089 -0.107627,0.01778 -0.02434,0.01274 -0.02539,0.01269 -0.02539,-0.0013 z"/><path style="fill:#fff;fill-opacity:1;fill-rule:nonzero;stroke:#fff;stroke-width:.0078125;stroke-miterlimit:10;stroke-opacity:1;stroke-dasharray:none" id="path4413" d="m 22.969823,28.225059 c 0.04024,-0.0104 0.0854,-0.02613 0.100372,-0.03496 0.02512,-0.01482 0.03212,-0.01541 0.09091,-0.0077 0.03503,0.0046 0.109393,0.01123 0.165252,0.01469 0.05586,0.0035 0.08385,0.0068 0.0622,0.0074 -0.04919,0.0014 -0.297293,0.02223 -0.386289,0.03243 -0.103251,0.01183 -0.111967,0.0086 -0.03244,-0.01192 z"/><path style="fill:#fff;fill-opacity:1;fill-rule:nonzero;stroke:#fff;stroke-width:.0078125;stroke-miterlimit:10;stroke-opacity:1;stroke-dasharray:none" id="path4417" d="m 15.939634,26.050713 c 0,-0.0226 0.0066,-0.02503 0.100135,-0.03687 0.176715,-0.02236 0.169203,-0.02235 0.10299,-9e-5 -0.03223,0.01084 -0.08651,0.02542 -0.120639,0.03241 -0.03412,0.007 -0.06664,0.01447 -0.07227,0.01663 -0.0064,0.0024 -0.01022,-0.0021 -0.01022,-0.01208 z"/><path style="fill:#fff;fill-opacity:1;fill-rule:nonzero;stroke:#fff;stroke-width:.0078125;stroke-miterlimit:10;stroke-opacity:1;stroke-dasharray:none" id="path4425" d="m 14.887497,25.651596 c 0.02749,-0.02665 0.171359,-0.140065 0.174143,-0.137281 0.0019,0.0019 -0.0094,0.0176 -0.025,0.03492 -0.0283,0.03132 -0.03989,0.07831 -0.01932,0.07831 0.02516,0 -0.0072,0.01063 -0.06135,0.02018 -0.07374,0.013 -0.07813,0.01324 -0.06846,0.0039 z"/><path style="fill:#fff;fill-opacity:1;fill-rule:nonzero;stroke:#fff;stroke-width:.0078125;stroke-miterlimit:10;stroke-opacity:1;stroke-dasharray:none" id="path4427" d="m 14.633642,25.86387 c 2.42e-4,-0.0032 0.02509,-0.02599 0.05522,-0.05059 l 0.05478,-0.04473 0.01828,0.02125 c 0.02205,0.02564 0.01896,0.03301 -0.01395,0.03323 -0.02683,1.84e-4 -0.08602,0.02397 -0.09474,0.03808 -0.006,0.0097 -0.02027,0.01174 -0.01959,0.0028 z"/><path style="fill:#fff;fill-opacity:1;fill-rule:nonzero;stroke:#fff;stroke-width:.0078125;stroke-miterlimit:10;stroke-opacity:1;stroke-dasharray:none" id="path4431" d="m 14.532408,27.550045 c 0.03624,-0.04902 -0.0071,-0.08614 -0.08805,-0.07541 l -0.03868,0.0051 0.01718,-0.02324 c 0.01638,-0.02215 0.01806,-0.02267 0.03577,-0.01106 0.02719,0.01782 0.07301,0.0094 0.263808,-0.0484 0.407989,-0.123617 0.559195,-0.192174 0.559195,-0.253541 0,-0.0077 0.005,-0.01826 0.01122,-0.02338 0.0142,-0.01178 0.03079,-0.0032 0.06543,0.034 0.01436,0.01541 0.03999,0.03198 0.05763,0.03726 l 0.03177,0.0095 -0.04142,0.01408 c -0.02278,0.0077 -0.04785,0.02098 -0.05571,0.02942 -0.0079,0.0084 -0.02856,0.01919 -0.046,0.02388 -0.01744,0.0047 -0.03676,0.01048 -0.04294,0.01285 -0.0071,0.0027 -0.01123,-6.57e-4 -0.01123,-0.0092 0,-0.009 -0.0045,-0.01227 -0.01367,-0.0099 -0.0075,0.002 -0.08311,0.02425 -0.167969,0.0495 l -0.154297,0.0459 0,0.06104 c 0,0.06939 -0.005,0.07526 -0.04863,0.05703 -0.02293,-0.0096 -0.03675,-0.01025 -0.07315,-0.0035 -0.05248,0.0097 -0.131693,0.03738 -0.212982,0.07443 -0.0318,0.01449 -0.05924,0.02635 -0.06098,0.02635 -0.0017,0 0.0044,-0.01026 0.0137,-0.02281 z"/><path style="fill:#fff;fill-opacity:1;fill-rule:nonzero;stroke:#fff;stroke-width:.0078125;stroke-miterlimit:10;stroke-opacity:1;stroke-dasharray:none" id="path4433" d="m 12.992575,27.280678 c 0,-0.0017 0.04043,-0.03883 0.08984,-0.08249 0.04941,-0.04366 0.08984,-0.07608 0.08984,-0.07206 0,0.004 -0.0052,0.01164 -0.01158,0.01693 -0.01968,0.01634 -0.0284,0.06176 -0.0156,0.0813 0.01016,0.01551 0.0092,0.01876 -0.01155,0.03833 -0.0222,0.02095 -0.0227,0.02104 -0.02517,0.0045 -0.0049,-0.03301 -0.02519,-0.03546 -0.06884,-0.0083 -0.03954,0.02458 -0.04695,0.02803 -0.04695,0.02186 z"/><path style="fill:#fff;fill-opacity:1;fill-rule:nonzero;stroke:#fff;stroke-width:.0078125;stroke-miterlimit:10;stroke-opacity:1;stroke-dasharray:none" id="path4443" d="m 6.086325,22.691503 0,-3.181149 1.2460938,0 1.2460937,0 0,2.089342 0,2.089343 -1.2246093,1.072006 C 6.680368,25.350648 6.1196258,25.841961 6.1078094,25.852851 l -0.021484,0.0198 0,-3.181149 z"/><path style="fill:#fff;fill-opacity:1;fill-rule:nonzero;stroke:#fff;stroke-width:.0078125;stroke-miterlimit:10;stroke-opacity:1;stroke-dasharray:none" id="path4445" d="m 5.961325,22.827518 0,-3.317164 0.058584,0 0.058584,0 0.00196,3.188914 0.00196,3.188913 1.2519531,-1.0965 1.2519531,-1.0965 0,-2.092414 0,-2.092413 0.058594,0 0.058594,0 -4.586e-4,2.119141 -4.586e-4,2.11914 -1.3433233,1.175781 c -0.7388282,0.64668 -1.3556142,1.185791 -1.3706355,1.198024 l -0.027311,0.02224 0,-3.317164 z"/><path style="fill:#fff;fill-opacity:1;fill-rule:nonzero;stroke:#fff;stroke-width:.0078125;stroke-miterlimit:10;stroke-opacity:1;stroke-dasharray:none" id="path4447" d="m 8.711325,21.624096 0,-2.113742 0.0625,0 0.0625,0 1.489e-4,0.240234 c 8.19e-5,0.132129 0.00355,0.609375 0.00771,1.060547 0.016965,1.840874 0.045752,2.361923 0.1379813,2.497462 0.024057,0.03535 0.071917,0.0566 0.1116075,0.04953 0.031386,-0.0056 0.099767,-0.04496 0.1668596,-0.09608 0.02497,-0.01903 0.046897,-0.03309 0.048727,-0.03127 0.00183,0.0018 -0.015084,0.01912 -0.037587,0.03842 -0.1118614,0.09595 -0.542163,0.457485 -0.5506803,0.462679 -0.0078,0.0048 -0.00977,-0.418826 -0.00977,-2.107788 z"/><path style="fill:#fff;fill-opacity:1;fill-rule:nonzero;stroke:#fff;stroke-width:.0078125;stroke-miterlimit:10;stroke-opacity:1;stroke-dasharray:none" id="path4449" d="m 9.031551,23.336526 c -0.058514,-0.02969 -0.083047,-0.097 -0.1089138,-0.298828 -0.028115,-0.219367 -0.043535,-0.54412 -0.055087,-1.160157 -0.00923,-0.492414 -0.023232,-1.765713 -0.023339,-2.123046 l -7.32e-5,-0.244141 0.058594,0 0.058594,0 1.426e-4,0.240234 c 5.113e-4,0.861629 0.021311,2.33024 0.038864,2.744141 0.017793,0.419541 0.049778,0.712915 0.079745,0.731435 0.040759,0.02519 1.1169364,-0.888643 1.5143354,-1.285896 0.244958,-0.244868 0.282117,-0.336555 0.242309,-0.597883 -0.0092,-0.06016 -0.0199,-0.135742 -0.02387,-0.167969 -0.0134,-0.108902 -0.03287,-0.71059 -0.04381,-1.353515 l -0.0053,-0.310547 0.101792,0 0.101792,0 0.0048,0.232422 c 0.01907,0.924748 0.02573,1.130931 0.04437,1.373047 0.01439,0.186943 0.03976,0.339843 0.05639,0.339843 0.0198,0 0.532512,-0.438801 1.5427,-1.320312 l 0.344688,-0.300781 5.19e-4,-0.16211 5.2e-4,-0.162109 0.05859,0 0.05859,0 0,0.186076 0,0.186077 -0.451172,0.394511 c -0.874797,0.764934 -1.426485,1.238355 -1.495136,1.283022 -0.05366,0.03491 -0.107242,0.03109 -0.141934,-0.01014 l -0.01844,-0.02191 -0.01245,0.06459 c -0.02655,0.137727 -0.09659,0.243595 -0.286812,0.433536 -0.17415,0.17389 -0.639489,0.590539 -0.9690555,0.867657 -0.3647167,0.306675 -0.5740171,0.460343 -0.6269999,0.460343 -0.00567,0 -0.025906,-0.0079 -0.044962,-0.01758 z"/><path style="fill:#fff;fill-opacity:1;fill-rule:nonzero;stroke:#fff;stroke-width:.0078125;stroke-miterlimit:10;stroke-opacity:1;stroke-dasharray:none" id="path4451" d="m 16.638094,24.589035 c -0.0074,-0.286898 -0.01016,-0.265065 0.03731,-0.2911 0.01277,-0.007 0.014,-0.0061 0.0088,0.0064 -0.02329,0.05563 -0.02919,0.111509 -0.03415,0.323174 l -0.0052,0.222657 -0.0067,-0.261163 z"/><path style="fill:#fff;fill-opacity:1;fill-rule:nonzero;stroke:#fff;stroke-width:.0078125;stroke-miterlimit:10;stroke-opacity:1;stroke-dasharray:none" id="path4453" d="m 16.867575,27.562173 c 0,-0.0016 0.01494,-0.01256 0.0332,-0.02442 0.01826,-0.01185 0.04227,-0.02998 0.05335,-0.04028 0.01877,-0.01746 0.02403,-0.01837 0.07723,-0.01343 l 0.05709,0.0053 -0.108481,0.03767 c -0.118331,0.04109 -0.112388,0.03924 -0.112388,0.03514 z"/><path style="fill:#fff;fill-opacity:1;fill-rule:nonzero;stroke:#fff;stroke-width:.0078125;stroke-miterlimit:10;stroke-opacity:1;stroke-dasharray:none" id="path4455" d="m 17.1332,27.464037 c 0,-0.01928 0.04826,-0.04964 0.09375,-0.05898 0.01504,-0.0031 0.03513,-0.01054 0.04465,-0.01657 0.0095,-0.006 0.0311,-0.01095 0.04797,-0.01095 0.01686,0 0.05955,-0.0055 0.09487,-0.01218 0.03531,-0.0067 0.06545,-0.01094 0.06696,-0.0094 0.0028,0.0028 -0.331647,0.115592 -0.342331,0.115436 -0.0032,-4.6e-5 -0.0059,-0.0033 -0.0059,-0.0073 z"/><path style="fill:#fff;fill-opacity:1;fill-rule:nonzero;stroke:#fff;stroke-width:.0078125;stroke-miterlimit:10;stroke-opacity:1;stroke-dasharray:none" id="path4457" d="m 17.144491,27.462786 c -0.0034,-0.0054 0.002,-0.01527 0.01298,-0.02378 0.02253,-0.01749 0.154775,-0.06146 0.184862,-0.06146 0.01179,0 0.0328,-0.0033 0.04668,-0.0072 0.02834,-0.0081 0.04287,0.0023 0.01559,0.01116 -0.02391,0.0078 -0.02859,0.0094 -0.03312,0.0117 -0.0021,0.0011 -0.0065,0.0025 -0.0098,0.0032 -0.0032,7.1e-4 -0.03047,0.0098 -0.06055,0.02019 -0.03008,0.01039 -0.05645,0.0191 -0.05859,0.01934 -0.0021,2.4e-4 -0.0083,0.0032 -0.01367,0.0066 -0.0054,0.0034 -0.0098,0.0038 -0.0098,8.77e-4 0,-0.0029 -0.0053,-9.47e-4 -0.01172,0.0044 -0.0064,0.0053 -0.01172,0.0071 -0.01172,0.0039 0,-0.0032 -0.0053,-0.0014 -0.01172,0.0039 -0.0064,0.0053 -0.01172,0.0071 -0.01172,0.0039 0,-0.0032 -0.005,-0.0017 -0.01102,0.0033 -0.0084,0.007 -0.01237,0.007 -0.01675,-1.16e-4 z"/><path style="fill:#fff;fill-opacity:1;fill-rule:nonzero;stroke:#fff;stroke-width:.0078125;stroke-miterlimit:10;stroke-opacity:1;stroke-dasharray:none" id="path4459" d="m 17.141013,27.46131 c 0,-0.03364 0.110328,-0.07493 0.252468,-0.09448 0.08155,-0.01122 -0.01677,0.03044 -0.238797,0.101157 -0.0086,0.0027 -0.01367,2.81e-4 -0.01367,-0.0067 z"/><path style="fill:#fff;fill-opacity:1;fill-rule:nonzero;stroke:#fff;stroke-width:.0078125;stroke-miterlimit:10;stroke-opacity:1;stroke-dasharray:none" id="path4473" d="M 9.6957,31.637029 C 9.684958,31.629829 9.674411,31.621949 9.672263,31.619559 9.643988,31.588119 9.5035147,31.474443 9.3792943,31.382481 9.2507227,31.287301 9.2009015,31.244357 9.0980443,31.140073 8.9979113,31.038552 8.8320004,30.844336 8.8022701,30.793839 c -0.00362,-0.0062 0.020865,-0.02902 0.069634,-0.06504 0.041371,-0.03055 0.076832,-0.05394 0.078801,-0.05197 0.00197,0.002 -0.00533,0.01671 -0.016226,0.03277 -0.030849,0.04546 -0.036403,0.07586 -0.023152,0.126736 0.0063,0.02418 0.020207,0.06004 0.030909,0.0797 0.058902,0.108189 0.2046639,0.263135 0.3424694,0.364049 0.1467999,0.107501 0.2719241,0.211369 0.4341534,0.360402 0.016001,0.0147 3.696e-4,0.01238 -0.023158,-0.0034 z"/><path style="fill:#fff;fill-opacity:1;fill-rule:nonzero;stroke:#fff;stroke-width:.0078125;stroke-miterlimit:10;stroke-opacity:1;stroke-dasharray:none" id="path4475" d="m 10.290694,32.693783 -0.0012,-0.140789 -0.142578,-0.0499 c -0.3037612,-0.106306 -0.4174741,-0.16 -0.4695695,-0.221728 -0.053348,-0.06321 -0.1570193,-0.12974 -0.4034775,-0.258923 -0.1455599,-0.0763 -0.2947087,-0.170069 -0.3050319,-0.19178 -0.00306,-0.0064 -0.011244,-0.02496 -0.018175,-0.04115 -0.012776,-0.02983 -0.027175,-0.04079 -0.1307201,-0.09948 C 8.721085,31.634003 8.4580019,31.423448 8.377385,31.33584 8.359123,31.31599 8.344182,31.29253 8.344182,31.28371 c 0,-0.02687 -0.02108,-0.06843 -0.039784,-0.07844 -0.00972,-0.0052 -0.036541,-0.0093 -0.059606,-0.0091 l -0.041937,3.77e-4 0.078661,-0.05405 c 0.043263,-0.02973 0.08062,-0.05405 0.083014,-0.05405 0.00239,0 0.040263,0.03126 0.084152,0.06947 0.090938,0.07917 0.1319481,0.12892 0.1730179,0.20991 0.037092,0.07315 0.1065124,0.137828 0.2619685,0.24409 0.1369788,0.09363 0.1824776,0.132201 0.2026864,0.171813 0.00823,0.01612 0.025999,0.03861 0.039496,0.04997 0.056683,0.0477 0.1966348,0.132491 0.4209636,0.255056 0.283395,0.154838 0.3121265,0.171467 0.3659056,0.211781 0.036162,0.02711 0.167202,0.09873 0.363143,0.19848 0.03332,0.01696 0.05565,0.03191 0.04962,0.03322 -0.01546,0.0033 -0.02146,0.04237 -0.02789,0.18122 l -0.0056,0.121094 -0.0012,-0.14079 0,0 z"/></g></svg>