<svg xmlns="http://www.w3.org/2000/svg" xmlns:svg="http://www.w3.org/2000/svg" xmlns:xlink="http://www.w3.org/1999/xlink" id="svg2" width="48" height="48" version="1.0"><metadata id="metadata48"/><defs id="defs3"><linearGradient id="linearGradient6455"><stop style="stop-color:#fdb245;stop-opacity:1" id="stop6457" offset="0"/><stop style="stop-color:#f57900;stop-opacity:1" id="stop6459" offset="1"/></linearGradient><linearGradient id="linearGradient6121"><stop style="stop-color:#000;stop-opacity:1" id="stop6123" offset="0"/><stop style="stop-color:#000;stop-opacity:0" id="stop6125" offset="1"/></linearGradient><linearGradient id="linearGradient9543"><stop style="stop-color:#fff;stop-opacity:1" id="stop9545" offset="0"/><stop style="stop-color:#fff;stop-opacity:0" id="stop9547" offset="1"/></linearGradient><linearGradient id="linearGradient8955"><stop style="stop-color:#729fcf;stop-opacity:1" id="stop8957" offset="0"/><stop style="stop-color:#3465a4;stop-opacity:1" id="stop8959" offset="1"/></linearGradient><linearGradient id="linearGradient5048"><stop style="stop-color:#000;stop-opacity:0" id="stop5050" offset="0"/><stop style="stop-color:#000;stop-opacity:1" id="stop5056" offset=".5"/><stop style="stop-color:#000;stop-opacity:0" id="stop5052" offset="1"/></linearGradient><linearGradient id="linearGradient5060"><stop style="stop-color:#000;stop-opacity:1" id="stop5062" offset="0"/><stop style="stop-color:#000;stop-opacity:0" id="stop5064" offset="1"/></linearGradient><linearGradient id="linearGradient6495" x1="302.857" x2="302.857" y1="366.648" y2="609.505" gradientTransform="matrix(3.19282,0,0,1.96971,-2079.34,-872.885)" gradientUnits="userSpaceOnUse" xlink:href="#linearGradient5048"/><radialGradient id="radialGradient6497" cx="605.714" cy="486.648" r="117.143" fx="605.714" fy="486.648" gradientTransform="matrix(2.25152,0,0,1.96971,-1511.42,-872.885)" gradientUnits="userSpaceOnUse" xlink:href="#linearGradient5060"/><radialGradient id="radialGradient6499" cx="605.714" cy="486.648" r="117.143" fx="605.714" fy="486.648" gradientTransform="matrix(-2.25152,0,0,1.96971,-339.3,-872.026)" gradientUnits="userSpaceOnUse" xlink:href="#linearGradient5060"/><linearGradient id="linearGradient6501" x1="30.738" x2="30.738" y1="13.826" y2="54.581" gradientTransform="matrix(0.875487,0,0,0.875514,2.9144,2.12278)" gradientUnits="userSpaceOnUse" xlink:href="#linearGradient8955"/><linearGradient id="linearGradient6507" x1="19.905" x2="19.905" y1="63.611" y2="40" gradientTransform="translate(1.3266094,6.3904064)" gradientUnits="userSpaceOnUse" xlink:href="#linearGradient6121"/><linearGradient id="linearGradient6509" x1="19.249" x2="19.249" y1="-1.478" y2="20.914" gradientTransform="matrix(0.95238,0,0,1.00044,0.19048,-7.8406e-3)" gradientUnits="userSpaceOnUse" xlink:href="#linearGradient9543"/><linearGradient id="linearGradient6175" x1="105.15" x2="105.15" y1="42.163" y2="15.315" gradientTransform="matrix(-0.884646,0,0,-0.875439,106.443,44.0198)" gradientUnits="userSpaceOnUse" xlink:href="#linearGradient6455"/><linearGradient id="linearGradient6194" x1="108.46" x2="108.46" y1="16.108" y2="55.454" gradientTransform="matrix(0.884646,0,0,0.875439,-58.4557,1.98455)" gradientUnits="userSpaceOnUse" xlink:href="#linearGradient6455"/></defs><g id="layer1"><path style="color:#000;fill:#fff;fill-opacity:1;fill-rule:evenodd;stroke:#fff;stroke-width:2;stroke-linecap:butt;stroke-linejoin:miter;stroke-miterlimit:4;stroke-opacity:1;stroke-dasharray:none;stroke-dashoffset:0;marker:none;visibility:visible;display:inline;overflow:visible" id="path6475-7" d="m 1.5,3.5060336 c 0,12.8176804 0,24.4963204 0,36.8125004 2.2283913,6.993979 11.373326,6.172658 17.312486,6.172658 9.229173,-0.01472 18.458336,-0.0391 27.687514,-0.04766 -0.01208,-13.023672 0,-25.738157 0,-38.7812504 -2.262585,-6.94395077 -10.440304,-6.15625 -17.3125,-6.15625 -9.229167,0 -18.458333,0 -27.6875,0 l 0,1 0,1 z"/><path style="color:#000;fill:#fff;fill-opacity:1;fill-rule:evenodd;stroke:#000;stroke-width:2;stroke-linecap:butt;stroke-linejoin:miter;stroke-miterlimit:4;stroke-opacity:1;stroke-dasharray:none;stroke-dashoffset:0;marker:none;visibility:visible;display:inline;overflow:visible" id="path6475" d="m 37.195133,3.5060337 c 4.042555,0 7.297032,3.2490465 7.297032,7.2848573 l 0,33.656304 -33.695135,0.05227 C 6.75448,44.499461 3.5,41.250415 3.5,37.214604 l 0,-33.7051572 33.695133,-0.00341 z"/><path style="color:#000;fill:#000;fill-opacity:1;fill-rule:evenodd;stroke:#000;stroke-width:1px;stroke-linecap:butt;stroke-linejoin:miter;stroke-miterlimit:4;stroke-opacity:1;stroke-dasharray:none;stroke-dashoffset:0;marker:none;visibility:visible;display:inline;overflow:visible" id="path6190" d="m 28.924467,9.5119848 c -3.894425,0.057221 -7.765896,1.6472502 -10.875,5.5312502 -3.180637,3.973364 -0.914627,9.555854 1.870239,11.155702 2.251796,1.043484 4.2269,-0.683737 4.519363,-1.790093 -0.807566,0.370642 -3.412205,0.399255 -3.887954,-1.179755 -0.499455,-3.668801 1.920543,-6.281018 5.342102,-6.654604 5.778351,-0.630914 10.287942,5.098295 10.75,10.500001 0.651658,7.618229 -5.264963,15.226534 -12.25,17.40625 l 20.09375,0.0253 0,-27.494049 c -1.27727,-1.449149 -2.743942,-2.778931 -4.4375,-3.90625 -3.295082,-2.193376 -7.230575,-3.6509712 -11.125,-3.5937502 z"/><path style="color:#000;fill:#000;fill-opacity:1;fill-rule:evenodd;stroke:#000;stroke-width:1px;stroke-linecap:butt;stroke-linejoin:miter;stroke-miterlimit:4;stroke-opacity:1;stroke-dasharray:none;stroke-dashoffset:0;marker:none;visibility:visible;display:inline;overflow:visible" id="path6167" d="m 19.0625,38.504408 c 3.894425,-0.05722 7.765896,-1.64725 10.875,-5.53125 3.180639,-3.973364 0.914622,-9.555853 -1.870239,-11.155701 -2.251796,-1.043484 -4.2269,0.683737 -4.519363,1.790093 0.807566,-0.370642 3.422093,-0.54757 3.897842,1.03144 0.499455,3.668801 -1.930431,6.429332 -5.35199,6.802918 -5.77835,0.630914 -10.28794,-5.098294 -10.75,-10.5 -0.65166,-7.618229 5.26496,-15.2265344 12.25,-17.4062504 L 3.5,3.5103596 3.5,31.004408 c 1.27727,1.449149 2.74394,2.778931 4.4375,3.90625 3.29508,2.193376 7.23058,3.650971 11.125,3.59375 z"/></g></svg>