<svg xmlns="http://www.w3.org/2000/svg" xmlns:svg="http://www.w3.org/2000/svg" id="svg7384" width="16" height="16" version="1.1"><title id="title9167">Gnome Symbolic Icon Theme</title><metadata id="metadata90"/><g id="g3063" transform="translate(1.1621092,0)"><rect style="fill:#bebebe;fill-opacity:1;stroke:none" id="rect3818" width="2" height="12" x="5" y="1" rx=".532" ry=".532"/><rect style="fill:#bebebe;fill-opacity:1;stroke:none" id="rect3820" width="2" height="4.695" x="-3" y="5" rx=".495" ry=".495" transform="matrix(0,-1,1,0,0,0)"/><path style="fill:#bebebe;fill-opacity:1;stroke:#bebebe;stroke-width:1.00945866;stroke-linejoin:round;stroke-miterlimit:4;stroke-opacity:1;stroke-dasharray:none;display:inline" id="path3822" d="m 6.4952556,12.500009 a 2.9952691,2.9952746 0 0 1 -5.9905381,0 2.9952691,2.9952746 0 1 1 5.9905381,0 z"/></g><g id="layer1" style="display:none"><g id="g3106" transform="matrix(0.55312955,0,0,0.55312955,7.4609129,8.6189509)" style="fill:#ef2929"><g id="layer12-9" transform="translate(-139.99995,-606)" style="fill:#ef2929"><path style="font-size:medium;font-style:normal;font-variant:normal;font-weight:400;font-stretch:normal;text-indent:0;text-align:start;text-decoration:none;line-height:normal;letter-spacing:normal;word-spacing:normal;text-transform:none;direction:ltr;text-anchor:start;color:#bebebe;fill:#ef2929;fill-opacity:1;fill-rule:nonzero;stroke:none;stroke-width:2;marker:none;visibility:visible;display:inline;overflow:visible;font-family:Andale Mono" id="path3807-1-1-5-8" d="m 143.99995,610 0,8 8,0 0,-8 -8,0 z"/></g></g></g><g id="layer2" style="display:inline"><g id="g3082" transform="matrix(0.47955647,0,0,0.47955647,7.7551812,9.0222715)" style="fill:#8ae234"><g id="layer12-6" transform="translate(-79.99995,-606)" style="fill:#8ae234"><path style="font-size:medium;font-style:normal;font-variant:normal;font-weight:400;font-stretch:normal;text-indent:0;text-align:start;text-decoration:none;line-height:normal;letter-spacing:normal;word-spacing:normal;text-transform:none;direction:ltr;block-progression:tb;writing-mode:lr-tb;text-anchor:start;color:#000;fill:#8ae234;fill-opacity:1;fill-rule:nonzero;stroke:none;stroke-width:2;marker:none;visibility:visible;display:inline;overflow:visible;enable-background:accumulate;font-family:Bitstream Vera Sans;-inkscape-font-specification:Bitstream Vera Sans" id="path3807-1-1-9-38-4" d="m 84,609 0,10 0.90625,0 L 85,619 c 0.174914,10e-4 0.347782,-0.0388 0.5,-0.125 l 7,-4 c 0.310699,-0.17189 0.46875,-0.52345 0.46875,-0.875 0,-0.35155 -0.158051,-0.70311 -0.46875,-0.875 l -7,-4 C 85.347782,609.03875 85.174914,608.99869 85,609 l -0.09375,0 z"/></g></g></g><g id="layer3" style="display:none"><g id="g3051" transform="matrix(0.53384026,0,0,0.53384026,7.53807,8.8504224)" style="fill:#fcaf3e"><g id="layer12-0" transform="translate(-159.99995,-496)" style="fill:#fcaf3e"><g id="g3221" transform="translate(39.99995,9)" style="fill:#fcaf3e"><path style="font-size:medium;font-style:normal;font-variant:normal;font-weight:400;font-stretch:normal;text-indent:0;text-align:start;text-decoration:none;line-height:normal;letter-spacing:normal;word-spacing:normal;text-transform:none;direction:ltr;text-anchor:start;color:#bebebe;fill:#fcaf3e;fill-opacity:1;stroke:none;stroke-width:2;marker:none;visibility:visible;display:inline;overflow:visible;font-family:Andale Mono" id="path3807-1-1-5-8-6" d="m 124,491 0,8 3,0 0,-8 -3,0 z"/><path style="font-size:medium;font-style:normal;font-variant:normal;font-weight:400;font-stretch:normal;text-indent:0;text-align:start;text-decoration:none;line-height:normal;letter-spacing:normal;word-spacing:normal;text-transform:none;direction:ltr;text-anchor:start;color:#bebebe;fill:#fcaf3e;fill-opacity:1;stroke:none;stroke-width:2;marker:none;visibility:visible;display:inline;overflow:visible;font-family:Andale Mono" id="path3807-1-1-5-8-6-3" d="m 129,491 0,8 3,0 0,-8 -3,0 z"/></g></g></g></g></svg>