<svg xmlns="http://www.w3.org/2000/svg" xmlns:svg="http://www.w3.org/2000/svg" xmlns:xlink="http://www.w3.org/1999/xlink" id="svg814" width="16" height="16" version="1.1"><defs id="defs816"><linearGradient id="linearGradient3859"><stop style="stop-color:#505050;stop-opacity:1" id="stop3861" offset="0"/><stop style="stop-color:#141414;stop-opacity:1" id="stop3863" offset="1"/></linearGradient><linearGradient id="linearGradient3789" x1="-404.005" x2="-404.005" y1="-283.018" y2="-273.849" gradientTransform="matrix(1.090528,0,0,1.090528,446.57928,-739.72262)" gradientUnits="userSpaceOnUse" xlink:href="#linearGradient3859"/><linearGradient id="linearGradient3923"><stop id="stop3925" offset="0" style="stop-color:#404040;stop-opacity:1"/><stop id="stop3927" offset="1" style="stop-color:#878787;stop-opacity:1"/></linearGradient><linearGradient id="linearGradient3933"><stop id="stop3935" offset="0" style="stop-color:#fff;stop-opacity:1"/><stop id="stop3937" offset="1" style="stop-color:#fff;stop-opacity:0"/></linearGradient><radialGradient id="radialGradient3003" cx="9.344" cy="8.665" r="4.109" fx="9.344" fy="8.665" gradientTransform="matrix(0.92617425,-0.37709581,0.67215474,1.65086,-5.1345454,1034.1666)" gradientUnits="userSpaceOnUse" xlink:href="#linearGradient3933"/><linearGradient id="linearGradient3008" x1="1582.125" x2="1580.844" y1="201.987" y2="199.268" gradientTransform="translate(-1568.9929,840.9997)" gradientUnits="userSpaceOnUse" xlink:href="#linearGradient3923"/></defs><metadata id="metadata819"/><g id="layer1" transform="translate(0,-1036.3622)"><rect id="rect6506" width="12.042" height="12.021" x="0" y="-1050.373" rx="1.756" ry="1.756" transform="scale(1,-1)" style="color:#000;fill:url(#linearGradient3789);fill-opacity:1;fill-rule:nonzero;stroke:none;stroke-width:1;marker:none;visibility:visible;display:inline;overflow:visible;enable-background:accumulate"/><path id="path24115" d="m 12.491101,1038.5743 -5.9527003,5.4952 -1.5385,-1.7075 c -0.5675,-0.6816 -1.6986,-0.074 -2.1043,0.8424 -0.3576,0.8077 -0.263,2.1051 0.2918,2.7201 l 2.3824,2.5312 c 0.3844,0.4761 1.1988,0.5355 1.7814,-0.031 l 6.9309003,-6.6701 c 0.8412,-0.897 0.6398,-2.2313 0.2214,-2.8846 -0.4925,-0.769 -1.4327,-0.7826 -2.0124,-0.2955 z m 0.1111,0.9402 1.1079,1.4103 -6.9220003,6.4375 -0.5937,0 -2.1875,-2.1875 0.1563,-1.4532 0.5312,-0.2343 1.4687,1.2187 0.3438,0.3438 0.2002,0.25 z" style="font-size:medium;font-style:normal;font-variant:normal;font-weight:400;font-stretch:normal;text-indent:0;text-align:start;text-decoration:none;line-height:normal;letter-spacing:normal;word-spacing:normal;text-transform:none;direction:ltr;block-progression:tb;writing-mode:lr-tb;text-anchor:start;color:#000;fill:url(#linearGradient3008);fill-opacity:1;stroke:none;stroke-width:1px;marker:none;visibility:visible;display:inline;overflow:visible;enable-background:accumulate;font-family:Ahem;-inkscape-font-specification:Ahem"/><path id="path24119" d="m 12.712701,1039.3503 -6.2213003,5.6908 -1.675,-1.7502 c -0.2927,-0.2624 -0.7322,2e-4 -0.8428,0.3317 l 0.028,1.5428 1.818,1.8656 7.9844003,-7.5312 c -0.2564,-0.4613 -0.6632,-0.4824 -1.0915,-0.1495 z" style="font-size:medium;font-style:normal;font-variant:normal;font-weight:400;font-stretch:normal;text-indent:0;text-align:start;text-decoration:none;line-height:normal;letter-spacing:normal;word-spacing:normal;text-transform:none;direction:ltr;block-progression:tb;writing-mode:lr-tb;text-anchor:start;color:#000;fill:#d2d2d2;fill-opacity:1;stroke:none;stroke-width:1px;marker:none;visibility:visible;display:inline;overflow:visible;enable-background:accumulate;font-family:Ahem;-inkscape-font-specification:Ahem"/><path id="path24117" d="m 13.804001,1039.4998 -7.3077003,6.8643 -2.5348,-2.7847 c 0,0 -0.5675,0.907 0.019,1.5866 l 2.1532,2.2536 c 0.1546,0.1768 0.4665,0.1222 0.6654,-0.01 l 6.9002003,-6.4719 c 0.5082,-0.5082 0.1094,-1.4375 0.1094,-1.4375 l 2e-4,0 z" style="font-size:medium;font-style:normal;font-variant:normal;font-weight:400;font-stretch:normal;text-indent:0;text-align:start;text-decoration:none;line-height:normal;letter-spacing:normal;word-spacing:normal;text-transform:none;direction:ltr;block-progression:tb;writing-mode:lr-tb;text-anchor:start;color:#000;fill:gray;fill-opacity:1;stroke:none;stroke-width:1px;marker:none;visibility:visible;display:inline;overflow:visible;enable-background:accumulate;font-family:Ahem;-inkscape-font-specification:Ahem"/><path style="opacity:.25514407;fill:none;stroke:url(#radialGradient3003);stroke-width:1px;stroke-linecap:round;stroke-linejoin:miter;stroke-opacity:1" id="path3929" d="m 6.46875,1047.0497 7.21875,-6.7344"/></g></svg>