<svg xmlns="http://www.w3.org/2000/svg" xmlns:svg="http://www.w3.org/2000/svg" xmlns:xlink="http://www.w3.org/1999/xlink" id="svg5038" width="40" height="40" version="1.1"><defs id="defs5040"><linearGradient id="linearGradient5872"><stop style="stop-color:#515151;stop-opacity:1" id="stop5874" offset="0"/><stop style="stop-color:#646464;stop-opacity:1" id="stop5876" offset="1"/></linearGradient><linearGradient id="linearGradient10354-2-9-1"><stop id="stop10356-2-8-2" offset="0" style="stop-color:#bbb;stop-opacity:1"/><stop id="stop10358-2-6-2" offset="1" style="stop-color:#fff;stop-opacity:1"/></linearGradient><linearGradient id="linearGradient10332-5-3-3"><stop style="stop-color:#d3d3d3;stop-opacity:1" id="stop10334-5-3-1" offset="0"/><stop style="stop-color:#8f8f8f;stop-opacity:1" id="stop10336-29-3-4" offset="1"/></linearGradient><linearGradient id="linearGradient85841-7-0"><stop style="stop-color:#242424;stop-opacity:1" id="stop85843-4-8" offset="0"/><stop id="stop85845-0-5" offset=".634" style="stop-color:#101010;stop-opacity:1"/><stop style="stop-color:#262626;stop-opacity:1" id="stop85847-7-3" offset="1"/></linearGradient><linearGradient id="linearGradient5036" x1="806.395" x2="808" y1="1040.737" y2="1106.529" gradientTransform="matrix(0.04849388,0,0,0.53398858,-4.8290974,-542.54487)" gradientUnits="userSpaceOnUse" xlink:href="#linearGradient85841-7-0"/><linearGradient id="linearGradient3786" x1="1205.575" x2="1205.575" y1="-186.453" y2="-202.346" gradientTransform="matrix(2.0481319,0,0,2.0481319,-2450.0341,382.436)" gradientUnits="userSpaceOnUse" xlink:href="#linearGradient10354-2-9-1"/><linearGradient id="linearGradient3788" x1="260.925" x2="260.925" y1="233.777" y2="248.976" gradientTransform="matrix(1.7397079,0,0,1.7366989,-430.55876,-445.43016)" gradientUnits="userSpaceOnUse" xlink:href="#linearGradient10332-5-3-3"/><linearGradient id="linearGradient3793" x1="205.841" x2="206.748" y1="246.709" y2="231.241" gradientTransform="matrix(1.025641,0,0,1.025641,-189.74359,-219.69231)" gradientUnits="userSpaceOnUse" xlink:href="#linearGradient5872"/></defs><metadata id="metadata5043"/><g id="layer1" transform="translate(0,-8)"><rect style="opacity:.75;color:#000;fill:url(#linearGradient5036);fill-opacity:1;fill-rule:nonzero;stroke:none;stroke-width:1;marker:none;visibility:visible;display:inline;overflow:visible;enable-background:accumulate" id="rect85718-2-9" width="40" height="40" x="0" y="8" rx="7.179" ry="7.179"/><rect id="rect6506-6" width="22.616" height="22.577" x="8.718" y="-39.282" rx="1.652" ry="1.652" transform="scale(1,-1)" style="color:#000;fill:url(#linearGradient3786);fill-opacity:1;fill-rule:nonzero;stroke:url(#linearGradient3788);stroke-width:1;stroke-opacity:1;marker:none;visibility:visible;display:inline;overflow:visible;enable-background:accumulate"/><path style="fill:none;stroke:url(#linearGradient3793);stroke-width:5.99999952;stroke-linecap:round;stroke-linejoin:round;stroke-miterlimit:4;stroke-opacity:1;stroke-dasharray:none" id="path5835" d="m 13.846148,26.46153 5.384616,5.384615 14.230769,-14.230769"/><path id="path5880" d="m 13.846148,26.46153 5.384616,5.384615 14.230769,-14.230769" style="fill:none;stroke:#878787;stroke-width:2.99999976000000013;stroke-linecap:round;stroke-linejoin:round;stroke-miterlimit:4;stroke-opacity:1;stroke-dasharray:none"/><path style="fill:none;stroke:#a8a8a8;stroke-width:.99999994000000003px;stroke-linecap:butt;stroke-linejoin:miter;stroke-opacity:1" id="path5882" d="m 13.044866,26.910248 c -0.115894,-0.103484 -0.203215,-0.238634 -0.249991,-0.386797 -0.04678,-0.148163 -0.05286,-0.308876 -0.01795,-0.460274 0.03491,-0.151399 0.110627,-0.29299 0.216075,-0.4071 0.105448,-0.114109 0.240139,-0.200487 0.386909,-0.251465 0.146771,-0.05098 0.305101,-0.06669 0.45961,-0.05034 0.154509,0.01635 0.304931,0.06438 0.443731,0.134202 0.277601,0.139638 0.501475,0.364349 0.716748,0.588444 l 3.910256,4.070512 13.589743,-12.980769 c 0.153422,-0.146547 0.310117,-0.292779 0.493657,-0.399208 0.18354,-0.10643 0.394231,-0.171346 0.606278,-0.164271 0.212047,0.0071 0.422165,0.08788 0.579058,0.230702 0.156894,0.142823 0.257866,0.345759 0.276135,0.557136"/></g></svg>