<svg xmlns="http://www.w3.org/2000/svg" xmlns:svg="http://www.w3.org/2000/svg" xmlns:xlink="http://www.w3.org/1999/xlink" id="svg814" width="16" height="16" version="1.1"><defs id="defs816"><linearGradient id="linearGradient8360" x1="664.27" x2="664.27" y1="261.448" y2="248.054" gradientUnits="userSpaceOnUse" xlink:href="#linearGradient12415-4-1-5"/><linearGradient id="linearGradient12415-4-1-5"><stop id="stop12417-2-8-0" offset="0" style="stop-color:#d3d3d3;stop-opacity:1"/><stop id="stop12419-5-0-9" offset="1" style="stop-color:#8f8f8f;stop-opacity:1"/></linearGradient><radialGradient id="radialGradient8368" cx="660.866" cy="251.413" r="5.029" fx="660.866" fy="251.413" gradientTransform="matrix(1.4685542,0,0,2.2820942,-309.65132,-324.35943)" gradientUnits="userSpaceOnUse" xlink:href="#linearGradient12405-7"/><linearGradient id="linearGradient12405-7"><stop id="stop12407-9" offset="0" style="stop-color:#000;stop-opacity:1"/><stop id="stop12409-7" offset="1" style="stop-color:#000;stop-opacity:0"/></linearGradient></defs><metadata id="metadata819"/><g id="layer1" transform="translate(0,-1036.3622)"><g id="g6305" transform="translate(-1031,770.36221)" style="display:inline;enable-background:new"><path id="path6307" d="m 665.47588,255.0668 c 0,4.02825 -2.01821,7.29379 -4.5078,7.29379 -2.48959,0 -4.50781,-3.26554 -4.50781,-7.29379 0,-4.02824 2.01822,-7.29378 4.50781,-7.29378 2.48959,0 4.5078,3.26554 4.5078,7.29378 z" transform="matrix(1.4419436,0,0,0.89116967,85.92127,46.692201)" style="color:#000;fill:none;fill-opacity:1;fill-rule:nonzero;stroke:url(#linearGradient8360);stroke-width:.88215655000000004;stroke-linecap:square;stroke-linejoin:round;stroke-miterlimit:4;stroke-opacity:1;stroke-dasharray:none;stroke-dashoffset:100;marker:none;visibility:visible;display:inline;overflow:visible;enable-background:new;opacity:.5"/><path style="opacity:.12955466;fill:none;stroke:url(#radialGradient8368);stroke-width:1.04254842;stroke-linecap:square;stroke-linejoin:round;stroke-miterlimit:4;stroke-opacity:1;stroke-dasharray:none;stroke-dashoffset:100" id="path6313" d="m 665.47588,255.0668 c 0,4.02825 -2.01821,7.29379 -4.5078,7.29379 -2.48959,0 -4.50781,-3.26554 -4.50781,-7.29379 0,-4.02824 2.01822,-7.29378 4.50781,-7.29378 2.48959,0 4.5078,3.26554 4.5078,7.29378 z" transform="matrix(1.2201064,0,0,0.75406683,232.54855,81.662583)"/><rect style="color:#000;fill:#a2a2a2;fill-opacity:1;fill-rule:nonzero;stroke:#a2a2a2;stroke-width:1;marker:none;visibility:visible;display:inline;overflow:visible;enable-background:accumulate;stroke-opacity:1;opacity:.5" id="rect5494" width="8.938" height="3.031" x="1034.531" y="272.5" rx="1.516" ry="1.516"/></g></g></svg>