<svg xmlns="http://www.w3.org/2000/svg" xmlns:svg="http://www.w3.org/2000/svg" xmlns:xlink="http://www.w3.org/1999/xlink" id="svg814" width="16" height="16" version="1.1"><defs id="defs816"><linearGradient id="linearGradient8392" x1="664.27" x2="664.27" y1="261.448" y2="248.054" gradientUnits="userSpaceOnUse" xlink:href="#linearGradient12415-4-1-5-2"/><linearGradient id="linearGradient12415-4-1-5-2"><stop id="stop12417-2-8-0-7" offset="0" style="stop-color:#d3d3d3;stop-opacity:1"/><stop id="stop12419-5-0-9-3" offset="1" style="stop-color:#8f8f8f;stop-opacity:1"/></linearGradient></defs><metadata id="metadata819"/><g id="layer1" transform="translate(0,-1036.3622)"><g id="g6305" transform="translate(-1031,770.36221)" style="display:inline;enable-background:new"><path id="path16919" d="m 665.47588,255.0668 c 0,4.02825 -2.01821,7.29379 -4.5078,7.29379 -2.48959,0 -4.50781,-3.26554 -4.50781,-7.29379 0,-4.02824 2.01822,-7.29378 4.50781,-7.29378 2.48959,0 4.5078,3.26554 4.5078,7.29378 z" transform="matrix(1.4419436,0,0,0.89116967,85.921307,46.692189)" style="opacity:.5;color:#000;fill:none;stroke:url(#linearGradient8392);stroke-width:.88215655;stroke-linecap:square;stroke-linejoin:round;stroke-miterlimit:4;stroke-opacity:1;stroke-dasharray:none;stroke-dashoffset:100;marker:none;visibility:visible;display:inline;overflow:visible;enable-background:new"/><path style="opacity:.5;color:#000;fill:#8f8f8f;fill-opacity:1;fill-rule:nonzero;stroke:#8f8f8f;stroke-width:1.64175235999999991;stroke-linecap:square;stroke-linejoin:round;stroke-miterlimit:4;stroke-opacity:1;stroke-dasharray:none;stroke-dashoffset:144.44521581000000765;marker:none;visibility:visible;display:inline;overflow:visible;enable-background:accumulate" id="path16921" d="m 665.47588,255.0668 c 0,4.02825 -2.01821,7.29379 -4.5078,7.29379 -2.48959,0 -4.50781,-3.26554 -4.50781,-7.29379 0,-4.02824 2.01822,-7.29378 4.50781,-7.29378 2.48959,0 4.5078,3.26554 4.5078,7.29378 z" transform="matrix(0.77479411,0,0,0.47884882,526.88584,151.86155)"/></g></g></svg>