<svg xmlns="http://www.w3.org/2000/svg" xmlns:svg="http://www.w3.org/2000/svg" xmlns:xlink="http://www.w3.org/1999/xlink" id="svg814" width="16" height="16" version="1.1"><defs id="defs816"><linearGradient id="linearGradient8358" x1="662.534" x2="662.534" y1="249.291" y2="262.5" gradientUnits="userSpaceOnUse" xlink:href="#linearGradient11577-0-5-0-2"/><linearGradient id="linearGradient11577-0-5-0-2"><stop id="stop11579-5-6-7-4" offset="0" style="stop-color:#d3d3d3;stop-opacity:1"/><stop id="stop11581-8-0-0-9" offset="1" style="stop-color:#fff;stop-opacity:1"/></linearGradient><linearGradient id="linearGradient8360" x1="664.27" x2="664.27" y1="261.448" y2="248.054" gradientUnits="userSpaceOnUse" xlink:href="#linearGradient12415-4-1-5"/><linearGradient id="linearGradient12415-4-1-5"><stop id="stop12417-2-8-0" offset="0" style="stop-color:#d3d3d3;stop-opacity:1"/><stop id="stop12419-5-0-9" offset="1" style="stop-color:#8f8f8f;stop-opacity:1"/></linearGradient><radialGradient id="radialGradient8368" cx="660.866" cy="251.413" r="5.029" fx="660.866" fy="251.413" gradientTransform="matrix(1.4685542,0,0,2.2820942,-309.65132,-324.35943)" gradientUnits="userSpaceOnUse" xlink:href="#linearGradient12405-7"/><linearGradient id="linearGradient12405-7"><stop id="stop12407-9" offset="0" style="stop-color:#000;stop-opacity:1"/><stop id="stop12409-7" offset="1" style="stop-color:#000;stop-opacity:0"/></linearGradient><linearGradient id="linearGradient7346"><stop style="stop-color:#9e856c;stop-opacity:1" id="stop7348" offset="0"/><stop style="stop-color:#4c3620;stop-opacity:1" id="stop7350" offset="1"/></linearGradient><linearGradient id="linearGradient119" x1="5.656" x2="5.656" y1="6.391" y2="9.828" gradientTransform="translate(1033.0001,265.99998)" gradientUnits="userSpaceOnUse" xlink:href="#linearGradient7346"/></defs><metadata id="metadata819"/><g id="layer1" transform="translate(0,-1036.3622)"><g id="g6305" transform="translate(-1031,770.36221)" style="display:inline;enable-background:new"><path id="path6307" d="m 665.47588,255.0668 c 0,4.02825 -2.01821,7.29379 -4.5078,7.29379 -2.48959,0 -4.50781,-3.26554 -4.50781,-7.29379 0,-4.02824 2.01822,-7.29378 4.50781,-7.29378 2.48959,0 4.5078,3.26554 4.5078,7.29378 z" transform="matrix(1.4419436,0,0,0.89116967,85.92127,46.692201)" style="color:#000;fill:url(#linearGradient8358);fill-opacity:1;fill-rule:nonzero;stroke:url(#linearGradient8360);stroke-width:.88215655;stroke-linecap:square;stroke-linejoin:round;stroke-miterlimit:4;stroke-opacity:1;stroke-dasharray:none;stroke-dashoffset:100;marker:none;visibility:visible;display:inline;overflow:visible;enable-background:new"/><path style="opacity:.12955466;fill:none;stroke:url(#radialGradient8368);stroke-width:1.04254842;stroke-linecap:square;stroke-linejoin:round;stroke-miterlimit:4;stroke-opacity:1;stroke-dasharray:none;stroke-dashoffset:100" id="path6313" d="m 665.47588,255.0668 c 0,4.02825 -2.01821,7.29379 -4.5078,7.29379 -2.48959,0 -4.50781,-3.26554 -4.50781,-7.29379 0,-4.02824 2.01822,-7.29378 4.50781,-7.29378 2.48959,0 4.5078,3.26554 4.5078,7.29378 z" transform="matrix(1.2201064,0,0,0.75406683,232.54855,81.662583)"/><rect style="color:#000;fill:#977a5c;fill-opacity:1;fill-rule:nonzero;stroke:url(#linearGradient119);stroke-width:1;marker:none;visibility:visible;display:inline;overflow:visible;enable-background:accumulate" id="rect5494" width="8.938" height="3.031" x="1034.531" y="272.5" rx="1.516" ry="1.516"/><path style="opacity:.50431064;fill:none;stroke:#fff;stroke-width:1px;stroke-linecap:round;stroke-linejoin:miter;stroke-opacity:1" id="path5496" d="m 1035.5313,273.56248 6.9375,0"/></g></g></svg>