<svg xmlns="http://www.w3.org/2000/svg" xmlns:svg="http://www.w3.org/2000/svg" id="svg7384" width="12" height="20" version="1.1"><title id="title9167">Gnome Symbolic Icon Theme</title><metadata id="metadata90"/><path style="color:#bebebe;fill:#3c3c3c;fill-opacity:1;fill-rule:nonzero;stroke:none;stroke-width:2;marker:none;visibility:visible;display:inline;overflow:visible;enable-background:accumulate" id="path3490-2" d="m 6.0003872,17.499777 a 1.5000001,1.5000001 0 0 0 0,-3 1.5000001,1.5000001 0 1 0 0,3 z"/><path style="color:#bebebe;fill:#3c3c3c;fill-opacity:1;fill-rule:nonzero;stroke:none;stroke-width:2;marker:none;visibility:visible;display:inline;overflow:visible;enable-background:accumulate" id="path3490-3-0" d="m 6.0003872,13.499778 a 1.5000004,1.5000004 0 0 0 0,-3 1.5000001,1.5000001 0 1 0 0,2.999999 z"/><path id="path2992" d="m 6.0003872,9.5002235 a 1.5000004,1.5000004 0 0 0 0,-3.0000008 1.5000001,1.5000001 0 1 0 0,2.9999998 z" style="color:#bebebe;fill:#3c3c3c;fill-opacity:1;fill-rule:nonzero;stroke:none;stroke-width:2;marker:none;visibility:visible;display:inline;overflow:visible;enable-background:accumulate"/><path style="color:#bebebe;fill:#3c3c3c;fill-opacity:1;fill-rule:nonzero;stroke:none;stroke-width:2;marker:none;visibility:visible;display:inline;overflow:visible;enable-background:accumulate" id="path2994" d="m 6.0003872,5.5002235 a 1.5000004,1.5000004 0 0 0 0,-3.0000008 1.5000001,1.5000001 0 1 0 0,2.9999998 z"/></svg>