<svg xmlns="http://www.w3.org/2000/svg" xmlns:svg="http://www.w3.org/2000/svg" xmlns:xlink="http://www.w3.org/1999/xlink" id="svg2" width="56" height="20" version="1.1"><defs id="defs4"><linearGradient id="linearGradient3851"><stop id="stop3853" offset="0" style="stop-color:#dae3ed;stop-opacity:.91351354"/><stop style="stop-color:#7699cc;stop-opacity:.58682632" id="stop3855" offset=".707"/><stop id="stop3857" offset="1" style="stop-color:#9da8c4;stop-opacity:.01960784"/></linearGradient><linearGradient id="linearGradient3803"><stop style="stop-color:#4c4c4c;stop-opacity:1" id="stop3805" offset="0"/><stop style="stop-color:#000;stop-opacity:.23952095" id="stop3807" offset="1"/></linearGradient><linearGradient id="linearGradient3833"><stop style="stop-color:#0f0f0f;stop-opacity:1" id="stop3835" offset="0"/><stop style="stop-color:#0b0b0b;stop-opacity:1" id="stop3837" offset="1"/></linearGradient><linearGradient id="linearGradient3809"><stop style="stop-color:#107dd8;stop-opacity:1" id="stop3811" offset="0"/><stop style="stop-color:#d6ecfc;stop-opacity:1" id="stop3813" offset="1"/></linearGradient><linearGradient id="linearGradient3786"><stop style="stop-color:#5c6876;stop-opacity:1" id="stop3788" offset="0"/><stop style="stop-color:#797979;stop-opacity:.29940119" id="stop3790" offset="1"/></linearGradient><linearGradient id="linearGradient3772"><stop style="stop-color:#000;stop-opacity:.36097562" id="stop3774" offset="0"/><stop style="stop-color:#000;stop-opacity:.22352941" id="stop3776" offset="1"/></linearGradient><linearGradient id="linearGradient3763"><stop style="stop-color:#000;stop-opacity:1" id="stop3765" offset="0"/><stop style="stop-color:#000;stop-opacity:1" id="stop3767" offset="1"/></linearGradient><linearGradient id="linearGradient3769"><stop style="stop-color:#fdfdfd;stop-opacity:1" id="stop3771" offset="0"/><stop style="stop-color:#e0e0e0;stop-opacity:1" id="stop3773" offset="1"/></linearGradient><linearGradient id="linearGradient3759"><stop style="stop-color:#6db8db;stop-opacity:1" id="stop3761" offset="0"/><stop id="stop3812" offset=".625" style="stop-color:#4ba8d3;stop-opacity:1"/><stop style="stop-color:#2c8bb6;stop-opacity:1" id="stop3763" offset="1"/></linearGradient><linearGradient id="linearGradient3765" x1="24.707" x2="24.707" y1="1033.362" y2="1051.362" gradientTransform="matrix(0.75925924,0,0,0.88888885,7.2407408,-1968.9061)" gradientUnits="userSpaceOnUse" xlink:href="#linearGradient3759"/><linearGradient id="linearGradient3967" x1="35" x2="35" y1="3" y2="26" gradientTransform="matrix(1.8,0,0,1.125,-33.2,1029.9872)" gradientUnits="userSpaceOnUse" xlink:href="#linearGradient4071-3-6"/><linearGradient id="linearGradient4071-3-6"><stop style="stop-color:#040404;stop-opacity:.47058824" id="stop4073-8-9" offset="0"/><stop style="stop-color:#fff;stop-opacity:1" id="stop4075-4-4" offset="1"/></linearGradient><linearGradient id="linearGradient3895" x1="35" x2="35" y1="3" y2="26" gradientTransform="matrix(1.2999999,0,0,0.875,-15.7,1033.0172)" gradientUnits="userSpaceOnUse" xlink:href="#linearGradient4071-3-6"/><linearGradient id="linearGradient3950" x1="35" x2="35" y1="3" y2="38" gradientTransform="matrix(1.8,0,0,1.125,-33.2,1029.9872)" gradientUnits="userSpaceOnUse" xlink:href="#linearGradient4071-3"/><linearGradient id="linearGradient4071-3"><stop style="stop-color:#000;stop-opacity:.66486484" id="stop4073-8" offset="0"/><stop style="stop-color:#000;stop-opacity:.24324325" id="stop4075-4" offset="1"/></linearGradient><linearGradient id="linearGradient3912" x1="35.5" x2="35.304" y1="3.103" y2="37.893" gradientTransform="matrix(1.3333334,0,0,0.99645293,-17.333334,1031.2702)" gradientUnits="userSpaceOnUse" xlink:href="#linearGradient4071-3"/><linearGradient id="linearGradient3792" x1="40.688" x2="48.312" y1="14" y2="14" gradientUnits="userSpaceOnUse" xlink:href="#linearGradient3786"/><linearGradient id="linearGradient3802" x1="44.5" x2="44.5" y1="11.035" y2="16.118" gradientUnits="userSpaceOnUse" xlink:href="#linearGradient3769"/><linearGradient id="linearGradient3815" x1="54.353" x2="54.353" y1="-.095" y2="8.095" gradientUnits="userSpaceOnUse" xlink:href="#linearGradient3809"/><linearGradient id="linearGradient3839" x1="51.38" x2="51.38" y1="-.268" y2="8.354" gradientUnits="userSpaceOnUse" xlink:href="#linearGradient3833"/><linearGradient id="linearGradient3921" x1="44.5" x2="44.5" y1="11.035" y2="16.118" gradientUnits="userSpaceOnUse" xlink:href="#linearGradient3769"/><linearGradient id="linearGradient3923" x1="40.688" x2="47.835" y1="14.847" y2="12.306" gradientUnits="userSpaceOnUse" xlink:href="#linearGradient3786"/><linearGradient id="linearGradient3810" x1="55.758" x2="55.691" y1="-.22" y2="7.492" gradientUnits="userSpaceOnUse" xlink:href="#linearGradient3803"/><linearGradient id="linearGradient3812" x1="54.254" x2="54.254" y1="-.268" y2="7.492" gradientUnits="userSpaceOnUse" xlink:href="#linearGradient3809"/><linearGradient id="linearGradient3765-1" x1="25" x2="25" y1="1033.362" y2="1051.362" gradientTransform="matrix(0.75925924,0,0,0.88888885,7.2407408,115.81826)" gradientUnits="userSpaceOnUse" xlink:href="#linearGradient3759-1"/><linearGradient id="linearGradient3759-1"><stop style="stop-color:#97b3ce;stop-opacity:.85628742" id="stop3761-3" offset="0"/><stop id="stop3792-3" offset=".5" style="stop-color:#4372b7;stop-opacity:.58682632"/><stop style="stop-color:#324882;stop-opacity:.40718561" id="stop3763-3" offset="1"/></linearGradient><radialGradient id="radialGradient3859" cx="32.635" cy="1042.851" r="14" fx="32.635" fy="1042.851" gradientTransform="matrix(0.81093738,0.01130084,-7.5030839e-8,0.64285596,8.1426188,371.59075)" gradientUnits="userSpaceOnUse" xlink:href="#linearGradient3851"/></defs><metadata id="metadata7"/><g id="layer1" transform="translate(0,-1032.3622)"><rect style="fill:url(#linearGradient3765);fill-opacity:1;stroke:none" id="rect2989" width="41" height="16" x="8" y="-1050.362" rx="7" ry="8" transform="scale(1,-1)"/><rect style="opacity:.43000004;fill:url(#radialGradient3859);fill-opacity:1;stroke:none" id="rect2989-0" width="22.7" height="16" x="19.5" y="1034.362" rx="3.876" ry="8"/><path id="path3791" d="m 49,14 c 0,2.209139 -2.014719,4 -4.5,4 -2.485281,0 -4.5,-1.790861 -4.5,-4 0,-2.209139 2.014719,-4 4.5,-4 2.485281,0 4.5,1.790861 4.5,4 z" transform="matrix(1.4746667,0,0,2.2805,-30.186668,1011.3132)" style="fill:#000;fill-opacity:.07843137;stroke:none"/><path style="opacity:.2;color:#000;fill:url(#linearGradient3895);fill-opacity:1;fill-rule:nonzero;stroke:none;stroke-width:2;marker:none;visibility:visible;display:inline;overflow:visible;enable-background:accumulate" id="rect4950" d="m 15.825,1035.3622 c -5.7616,0 -6.825,3.4019 -6.825,7.28 0,3.8781 1.0634,6.72 6.825,6.72 l 25.35,0 c 5.761602,0 6.825,-2.8419 6.825,-6.72 0,-3.8781 -1.063398,-7.28 -6.825,-7.28 z m 0,1.4 25.35,0 c 4.319184,0 5.380555,2.973 5.380555,5.88 0,2.9071 -1.061371,5.32 -5.380555,5.32 l -25.35,0 c -4.319183,0 -5.380556,-2.4129 -5.380556,-5.32 0,-2.907 1.061373,-5.88 5.380556,-5.88 z"/><path style="opacity:.45400002;color:#000;fill:url(#linearGradient3912);fill-opacity:1;fill-rule:nonzero;stroke:none;stroke-width:2;marker:none;visibility:visible;display:inline;overflow:visible;enable-background:accumulate" id="rect4944" d="m 16,1034.3622 c -5,0 -8,3.5837 -8,8 0,4.4163 3,8 6.956522,8 l 26.086956,0 c 5.909333,0 7.956522,-3.5837 7.956522,-8 0,-4.4162 -2.090666,-8 -8,-8 z m 14,1 11,0 c 5.212862,0 7,4 7,7 0,3 -1.786936,7 -7,7 l -26,0 c -4,0 -6,-4 -6,-7 0,-3 2,-7 7,-7 z"/><path style="fill:url(#linearGradient3921);fill-opacity:1;stroke:url(#linearGradient3923);stroke-width:.44922534;stroke-linecap:square;stroke-miterlimit:4;stroke-opacity:1;stroke-dasharray:none" id="path3767" d="m 49,14 c 0,2.209139 -2.014719,4 -4.5,4 -2.485281,0 -4.5,-1.790861 -4.5,-4 0,-2.209139 2.014719,-4 4.5,-4 2.485281,0 4.5,1.790861 4.5,4 z" transform="matrix(2.0987442,0,0,2.3610872,-53.693768,1009.307)"/><path id="path3764" d="m 49,14 c 0,2.209139 -2.014719,4 -4.5,4 -2.485281,0 -4.5,-1.790861 -4.5,-4 0,-2.209139 2.014719,-4 4.5,-4 2.485281,0 4.5,1.790861 4.5,4 z" transform="matrix(1.8888697,0,0,2.1249784,-44.354702,1012.6125)" style="fill:none;stroke:#fff;stroke-width:.49922532;stroke-linecap:square;stroke-miterlimit:4;stroke-opacity:.2477876;stroke-dasharray:none"/></g></svg>