<svg xmlns="http://www.w3.org/2000/svg" xmlns:svg="http://www.w3.org/2000/svg" id="svg7384" width="20" height="12" version="1.1"><title id="title9167">Gnome Symbolic Icon Theme</title><metadata id="metadata90"/><path style="color:#bebebe;fill:#bebebe;fill-opacity:1;fill-rule:nonzero;stroke:none;stroke-width:2;marker:none;visibility:visible;display:inline;overflow:visible;enable-background:accumulate" id="path3490-2" d="m 2.5002225,6.0006706 a 1.5000001,1.5000001 0 0 0 3,0 1.5000001,1.5000001 0 1 0 -3,0 z"/><path style="color:#bebebe;fill:#bebebe;fill-opacity:1;fill-rule:nonzero;stroke:none;stroke-width:2;marker:none;visibility:visible;display:inline;overflow:visible;enable-background:accumulate" id="path3490-3-0" d="m 6.5002215,6.0006706 a 1.5000005,1.5000005 0 0 0 3.000001,0 1.5000001,1.5000001 0 1 0 -3,0 z"/><path id="path2997" d="m 10.499776,6.0006706 a 1.5000005,1.5000005 0 0 0 3.000001,0 1.5000001,1.5000001 0 1 0 -3,0 z" style="color:#bebebe;fill:#bebebe;fill-opacity:1;fill-rule:nonzero;stroke:none;stroke-width:2;marker:none;visibility:visible;display:inline;overflow:visible;enable-background:accumulate"/><path style="color:#bebebe;fill:#bebebe;fill-opacity:1;fill-rule:nonzero;stroke:none;stroke-width:2;marker:none;visibility:visible;display:inline;overflow:visible;enable-background:accumulate" id="path2999" d="m 14.499776,6.0006706 a 1.5000005,1.5000005 0 0 0 3.000001,0 1.5000001,1.5000001 0 1 0 -2.999999,0 z"/></svg>