<svg xmlns="http://www.w3.org/2000/svg" xmlns:svg="http://www.w3.org/2000/svg" xmlns:xlink="http://www.w3.org/1999/xlink" id="svg2" width="56" height="20" version="1.1"><defs id="defs4"><linearGradient id="linearGradient3803"><stop style="stop-color:#484848;stop-opacity:.25882354" id="stop3805" offset="0"/><stop style="stop-color:#484848;stop-opacity:.25882354" id="stop3807" offset="1"/></linearGradient><linearGradient id="linearGradient3795"><stop style="stop-color:#000;stop-opacity:1" id="stop3797" offset="0"/><stop style="stop-color:#000;stop-opacity:1" id="stop3799" offset="1"/></linearGradient><linearGradient id="linearGradient3833"><stop style="stop-color:#0f0f0f;stop-opacity:1" id="stop3835" offset="0"/><stop style="stop-color:#c7c7c7;stop-opacity:.54491019" id="stop3837" offset="1"/></linearGradient><linearGradient id="linearGradient3809"><stop style="stop-color:#b9b9b9;stop-opacity:1" id="stop3811" offset="0"/><stop style="stop-color:#b9b9b9;stop-opacity:1" id="stop3813" offset="1"/></linearGradient><linearGradient id="linearGradient3786"><stop style="stop-color:#a0a0a0;stop-opacity:.6682927" id="stop3788" offset="0"/><stop style="stop-color:#b7b7b7;stop-opacity:1" id="stop3790" offset="1"/></linearGradient><linearGradient id="linearGradient3772"><stop style="stop-color:#000;stop-opacity:.36097562" id="stop3774" offset="0"/><stop style="stop-color:#000;stop-opacity:.22352941" id="stop3776" offset="1"/></linearGradient><linearGradient id="linearGradient3763"><stop style="stop-color:#000;stop-opacity:1" id="stop3765" offset="0"/><stop style="stop-color:#000;stop-opacity:1" id="stop3767" offset="1"/></linearGradient><linearGradient id="linearGradient3769"><stop style="stop-color:#d2d2d2;stop-opacity:1" id="stop3771" offset="0"/><stop style="stop-color:#d2d2d2;stop-opacity:1" id="stop3773" offset="1"/></linearGradient><linearGradient id="linearGradient3759"><stop style="stop-color:#b4b4b4;stop-opacity:.47058824" id="stop3761" offset="0"/><stop style="stop-color:#b4b4b4;stop-opacity:.47058824" id="stop3763" offset="1"/></linearGradient><linearGradient id="linearGradient3765" x1="25" x2="25" y1="1033.362" y2="1051.362" gradientTransform="matrix(0.75925924,0,0,0.88888885,7.2407408,115.81826)" gradientUnits="userSpaceOnUse" xlink:href="#linearGradient3759"/><linearGradient id="linearGradient3967" x1="35" x2="35" y1="3" y2="26" gradientTransform="matrix(1.8,0,0,1.125,-33.2,1029.9872)" gradientUnits="userSpaceOnUse" xlink:href="#linearGradient4071-3-6"/><linearGradient id="linearGradient4071-3-6"><stop style="stop-color:#000;stop-opacity:.35294119" id="stop4073-8-9" offset="0"/><stop style="stop-color:#000;stop-opacity:0" id="stop4075-4-4" offset="1"/></linearGradient><linearGradient id="linearGradient3895" x1="35" x2="35" y1="3" y2="26" gradientTransform="matrix(1.2999999,0,0,0.875,-15.7,1033.0172)" gradientUnits="userSpaceOnUse" xlink:href="#linearGradient4071-3-6"/><linearGradient id="linearGradient3950" x1="35" x2="35" y1="3" y2="38" gradientTransform="matrix(1.8,0,0,1.125,-33.2,1029.9872)" gradientUnits="userSpaceOnUse" xlink:href="#linearGradient4071-3"/><linearGradient id="linearGradient4071-3"><stop style="stop-color:#4b4b4b;stop-opacity:.50898206" id="stop4073-8" offset="0"/><stop style="stop-color:#5f5f5f;stop-opacity:.11976048" id="stop4075-4" offset="1"/></linearGradient><linearGradient id="linearGradient3912" x1="35.5" x2="35.304" y1="3.103" y2="37.893" gradientTransform="matrix(1.3333334,0,0,0.99645293,-17.333334,1031.2702)" gradientUnits="userSpaceOnUse" xlink:href="#linearGradient4071-3"/><linearGradient id="linearGradient3792" x1="43.071" x2="48.312" y1="14.424" y2="14.847" gradientUnits="userSpaceOnUse" xlink:href="#linearGradient3786"/><linearGradient id="linearGradient3802" x1="44.5" x2="44.5" y1="11.035" y2="16.118" gradientUnits="userSpaceOnUse" xlink:href="#linearGradient3769"/><linearGradient id="linearGradient3815" x1="54.254" x2="54.254" y1="1.457" y2="6.63" gradientUnits="userSpaceOnUse" xlink:href="#linearGradient3809"/><linearGradient id="linearGradient3810" x1="52.099" x2="52.099" y1=".594" y2="7.492" gradientUnits="userSpaceOnUse" xlink:href="#linearGradient3803"/></defs><metadata id="metadata7"/><g id="layer1" transform="translate(0,-1032.3622)"><rect style="fill:url(#linearGradient3765);fill-opacity:1;stroke:none" id="rect2989" width="41" height="16" x="8" y="1034.362" rx="7" ry="8"/><path style="opacity:.45400002;color:#000;fill:url(#linearGradient3912);fill-opacity:1;fill-rule:nonzero;stroke:none;stroke-width:2;marker:none;visibility:visible;display:inline;overflow:visible;enable-background:accumulate" id="rect4944" d="m 16,1034.3622 c -5,0 -8,3.5837 -8,8 0,4.4163 3,8 6.956522,8 l 26.086956,0 c 5.909333,0 7.956522,-3.5837 7.956522,-8 0,-4.4162 -2.090666,-8 -8,-8 z m 14,1 11,0 c 5.212862,0 7,4 7,7 0,3 -1.786936,7 -7,7 l -26,0 c -4,0 -6,-4 -6,-7 0,-3 2,-7 7,-7 z"/><path style="fill:url(#linearGradient3802);fill-opacity:1;stroke:url(#linearGradient3792);stroke-width:.44922532999999998;stroke-linecap:square;stroke-miterlimit:4;stroke-opacity:1;stroke-dasharray:none" id="path3767" d="m 49,14 c 0,2.209139 -2.014719,4 -4.5,4 -2.485281,0 -4.5,-1.790861 -4.5,-4 0,-2.209139 2.014719,-4 4.5,-4 2.485281,0 4.5,1.790861 4.5,4 z" transform="matrix(2.0987442,0,0,2.3610872,-76.394117,1009.307)"/></g></svg>