<svg xmlns="http://www.w3.org/2000/svg" xmlns:svg="http://www.w3.org/2000/svg" xmlns:xlink="http://www.w3.org/1999/xlink" id="svg2" width="24" height="24" version="1.1"><title id="title4">selected button</title><defs id="defs6"><linearGradient id="linearGradient4337"><stop style="stop-color:#000;stop-opacity:1" id="stop4339" offset="0"/><stop style="stop-color:#000;stop-opacity:0" id="stop4341" offset="1"/></linearGradient><filter id="filter4352" color-interpolation-filters="sRGB"><feGaussianBlur id="feGaussianBlur4354" stdDeviation="4.506"/></filter><radialGradient id="radialGradient4343" cx="105.517" cy="104.841" r="90.344" fx="105.517" fy="104.841" gradientTransform="translate(0,1.7406949e-6)" gradientUnits="userSpaceOnUse" xlink:href="#linearGradient4337"/></defs><metadata id="metadata18591">image/svg+xml</metadata><g id="g11" transform="matrix(0.11862705,0,0,0.11862705,-0.637485,-0.5559289)"><title id="title13">Layer 1</title><path id="path4346" stroke-miterlimit="4" d="m 190.86055,105.84055 c 0,46.58175 -37.76196,84.34375 -84.34372,84.34375 -46.581756,0 -84.34373,-37.76198 -84.34373,-84.34375 0,-46.581735 37.761974,-84.343697 84.34373,-84.343697 46.58176,0 84.34372,37.761963 84.34372,84.343697 z" style="fill:#fff;fill-rule:nonzero;stroke:#000;stroke-width:12;stroke-linecap:round;stroke-linejoin:round;stroke-miterlimit:4;stroke-dashoffset:0;filter:url(#filter4352)"/><path id="path4337" stroke-miterlimit="4" d="m 189.86055,104.84055 c 0,46.58175 -37.76196,84.34375 -84.34372,84.34375 -46.581756,0 -84.34373,-37.76198 -84.34373,-84.34375 0,-46.581735 37.761974,-84.343697 84.34373,-84.343697 46.58176,0 84.34372,37.761963 84.34372,84.343697 z" style="fill:none;fill-rule:nonzero;stroke:url(#radialGradient4343);stroke-width:12;stroke-linecap:round;stroke-linejoin:round;stroke-miterlimit:4;stroke-dashoffset:0;fill-opacity:1;stroke-opacity:1"/></g></svg>