<svg xmlns="http://www.w3.org/2000/svg" xmlns:svg="http://www.w3.org/2000/svg" id="svg2" width="24" height="24" version="1.1"><defs id="defs4"><filter id="filter4352" color-interpolation-filters="sRGB"><feGaussianBlur id="feGaussianBlur4354" stdDeviation="4.506"/></filter></defs><metadata id="metadata18591">image/svg+xml</metadata><g id="g9" transform="matrix(0.11862705,0,0,0.11862706,-0.637485,-0.55592895)"><title id="title11">Layer 1</title><path id="path4346" stroke-miterlimit="4" d="m 190.86055,105.84055 c 0,46.58175 -37.76196,84.34375 -84.34372,84.34375 -46.581756,0 -84.34373,-37.76198 -84.34373,-84.34375 0,-46.581735 37.761974,-84.343697 84.34373,-84.343697 46.58176,0 84.34372,37.761963 84.34372,84.343697 z" style="fill:#fff;fill-rule:nonzero;stroke:#000;stroke-width:12;stroke-linecap:round;stroke-linejoin:round;stroke-miterlimit:4;stroke-dashoffset:0;filter:url(#filter4352)"/><path id="path4337" stroke-miterlimit="4" d="m 189.86055,104.84055 c 0,46.58175 -37.76196,84.34375 -84.34372,84.34375 -46.581756,0 -84.34373,-37.76198 -84.34373,-84.34375 0,-46.581735 37.761974,-84.343697 84.34373,-84.343697 46.58176,0 84.34372,37.761963 84.34372,84.343697 z" style="fill:none;fill-rule:nonzero;stroke:#c2dda7;stroke-width:12;stroke-linecap:round;stroke-linejoin:round;stroke-miterlimit:4;stroke-dashoffset:0;stroke-opacity:0;fill-opacity:1"/><path id="path3787" d="m 143.93051,105.84056 c 0,20.66301 -16.75068,37.4137 -37.41369,37.4137 -20.663,0 -37.413679,-16.75068 -37.413679,-37.4137 0,-20.663001 16.750679,-37.41368 37.413679,-37.41368 20.66301,0 37.41369,16.750679 37.41369,37.41368 z" style="fill:#1a1a1a;fill-rule:nonzero;stroke-width:12"/></g></svg>